<?xml version="1.0" encoding="UTF-8"?>
<!DOCTYPE svg PUBLIC "-//W3C//DTD SVG 1.1//EN" "http://www.w3.org/Graphics/SVG/1.1/DTD/svg11.dtd">
<!-- Creator: CorelDRAW X8 -->
<svg xmlns="http://www.w3.org/2000/svg" xml:space="preserve" width="210mm" height="297mm" version="1.1" style="shape-rendering:geometricPrecision; text-rendering:geometricPrecision; image-rendering:optimizeQuality; fill-rule:evenodd; clip-rule:evenodd"
viewBox="0 0 21000 29700"
 xmlns:xlink="http://www.w3.org/1999/xlink"
 xmlns:svg="http://www.w3.org/2000/svg">
 <defs>
  <style type="text/css">
   <![CDATA[
    .str0 {stroke:white;stroke-width:75}
    .fil129 {fill:black}
    .fil70 {fill:#007F3B}
    .fil82 {fill:#00813D}
    .fil75 {fill:#008340}
    .fil98 {fill:#008441}
    .fil74 {fill:#018642}
    .fil93 {fill:#027D3C}
    .fil72 {fill:#038744}
    .fil77 {fill:#048A46}
    .fil73 {fill:#058C48}
    .fil76 {fill:#078D4A}
    .fil57 {fill:#1CB5EE}
    .fil103 {fill:#257546}
    .fil52 {fill:#27B8ED}
    .fil69 {fill:#2C7D4B}
    .fil116 {fill:#31AED2}
    .fil112 {fill:#33393E}
    .fil84 {fill:#344444}
    .fil51 {fill:#34BBEE}
    .fil63 {fill:#378756}
    .fil81 {fill:#393C43}
    .fil79 {fill:#393F44}
    .fil99 {fill:#3A4045}
    .fil97 {fill:#3C444A}
    .fil68 {fill:#3D4245}
    .fil1 {fill:#3F7F00}
    .fil110 {fill:#42454A}
    .fil102 {fill:#474849}
    .fil4 {fill:#49A977}
    .fil43 {fill:#49BEEC}
    .fil48 {fill:#4C9564}
    .fil26 {fill:#514E4B}
    .fil36 {fill:#55575A}
    .fil6 {fill:#557985}
    .fil47 {fill:#57C1EF}
    .fil31 {fill:#58534C}
    .fil2 {fill:#598893}
    .fil125 {fill:#5B6367}
    .fil107 {fill:#5E4124}
    .fil62 {fill:#5F4225}
    .fil83 {fill:#614325}
    .fil115 {fill:#688D95}
    .fil85 {fill:#6AADB7}
    .fil120 {fill:#6AB5CD}
    .fil39 {fill:#6BC6EF}
    .fil66 {fill:#6D522F}
    .fil10 {fill:#6DB890}
    .fil35 {fill:#73654E}
    .fil121 {fill:#75777A}
    .fil105 {fill:#765935}
    .fil64 {fill:#76B3BD}
    .fil30 {fill:#776755}
    .fil44 {fill:#78C8E9}
    .fil8 {fill:#79C1A0}
    .fil123 {fill:#7B6436}
    .fil61 {fill:#7CB8C0}
    .fil32 {fill:#7D8286}
    .fil71 {fill:#83BAC2}
    .fil124 {fill:#84878A}
    .fil41 {fill:#87CDE8}
    .fil25 {fill:#897458}
    .fil92 {fill:#8ABDC5}
    .fil20 {fill:#8D7B66}
    .fil23 {fill:#8E9091}
    .fil9 {fill:#91C8AF}
    .fil18 {fill:#95989A}
    .fil12 {fill:#967A57}
    .fil21 {fill:#968569}
    .fil42 {fill:#98D2E8}
    .fil28 {fill:#9B9EA1}
    .fil119 {fill:#9BC199}
    .fil16 {fill:#9C8351}
    .fil5 {fill:#9D8E20}
    .fil11 {fill:#A37D58}
    .fil3 {fill:#A49B8E}
    .fil7 {fill:#A5A8AA}
    .fil22 {fill:#A68967}
    .fil24 {fill:#A78957}
    .fil37 {fill:#A7D8E7}
    .fil13 {fill:#ADB0B1}
    .fil15 {fill:#B0956D}
    .fil38 {fill:#B1DDEA}
    .fil91 {fill:#B49B57}
    .fil17 {fill:#B79866}
    .fil104 {fill:#B9AA69}
    .fil33 {fill:#BAE1EE}
    .fil54 {fill:#BCA916}
    .fil114 {fill:#BCBFC0}
    .fil95 {fill:#C5A804}
    .fil117 {fill:#C7C8C9}
    .fil29 {fill:#C8996A}
    .fil100 {fill:#C9B010}
    .fil14 {fill:#CCB48A}
    .fil94 {fill:#CE955C}
    .fil34 {fill:#CFE8E8}
    .fil96 {fill:#D2985D}
    .fil58 {fill:#D49C63}
    .fil45 {fill:#D4A86F}
    .fil59 {fill:#D5B86C}
    .fil56 {fill:#D7BB75}
    .fil46 {fill:#DBDCDD}
    .fil55 {fill:#DCC07B}
    .fil67 {fill:#DDC485}
    .fil111 {fill:#E3E4E4}
    .fil50 {fill:#E5AE78}
    .fil49 {fill:#E7CD94}
    .fil118 {fill:#E7E8E8}
    .fil86 {fill:#E8B684}
    .fil60 {fill:#E8D6A9}
    .fil19 {fill:#EAD8B1}
    .fil122 {fill:#ECCA01}
    .fil27 {fill:#ECECEC}
    .fil113 {fill:#F1F1F1}
    .fil80 {fill:#F3F3F3}
    .fil109 {fill:whitesmoke}
    .fil53 {fill:#F6D200}
    .fil78 {fill:#F6F6F6}
    .fil40 {fill:#F7F7F7}
    .fil108 {fill:#F9F9F9}
    .fil90 {fill:#FBE8C6}
    .fil65 {fill:#FBFCFB}
    .fil101 {fill:#FDE5C5}
    .fil87 {fill:#FDE9CB}
    .fil106 {fill:#FDFDFD}
    .fil88 {fill:#FEECD0}
    .fil89 {fill:#FEFEFE}
    .fil0 {fill:#FF7F00}
    .fil128 {fill:#FFD4AA}
    .fil127 {fill:white}
    .fil126 {fill:#373435;fill-rule:nonzero}
   ]]>
  </style>
 </defs>
 <g id="Camada_x0020_1">
  <metadata id="CorelCorpID_0Corel-Layer"/>
  <polygon id="svg_13" class="fil0" points="17308,17838 5243,17838 5243,19075 17308,19075 "/>
  <polygon id="svg_11" class="fil1" points="5243,17867 17308,17867 17308,10611 5243,10611 "/>
  <g id="_1827139839760">
   <g>
    <path class="fil2" d="M11700 12997l21 -52 -53 23c45,8 19,-20 32,29z"/>
    <path class="fil2" d="M12758 14438c17,-48 25,-6 -3,-57l-30 13 43 -17 -10 61z"/>
   </g>
   <g>
    <path class="fil3" d="M11614 14216c21,-20 13,20 31,-52l-52 6c9,22 1,17 21,46z"/>
    <path class="fil3" d="M12545 16159c-38,-33 -24,-25 -79,-39l79 39z"/>
   </g>
   <g>
    <path class="fil4" d="M11134 17368l0 35c79,-3 34,8 53,-26 -15,-66 3,-7 -28,-34l8 35 -33 -10z"/>
    <path class="fil4" d="M10171 15034l29 29 36 -27c-26,-78 -1,-10 -39,-40 11,66 14,25 -26,38z"/>
    <path class="fil4" d="M9998 15038c-47,-18 -25,16 -28,-37l-38 64 66 -27z"/>
   </g>
   <g>
    <path class="fil5" d="M11410 13871c-7,55 16,19 -18,46 -22,-22 -25,34 -14,-44 -19,26 -32,-42 -14,51l59 5c21,-105 4,-31 -13,-58z"/>
    <polygon class="fil5" points="11274,13910 11276,13929 11323,13929 11328,13871 11311,13874 11316,13919 "/>
   </g>
   <g>
    <path class="fil6" d="M11569 16148l-68 -39c-42,-24 -26,-30 -57,-55l16 65 109 29z"/>
    <path class="fil6" d="M11322 15176c73,-19 25,-17 40,25 13,-16 20,10 28,-60 -59,2 -31,-11 -68,35z"/>
   </g>
   <g>
    <path class="fil7" d="M12828 14674l5 48 39 -4 6 -80c-5,4 -19,15 -22,18 -3,2 -11,12 -13,9 -3,-4 -10,6 -15,9z"/>
    <path class="fil7" d="M11242 15311c42,-33 21,8 38,-62 -92,18 -11,-2 -46,30 21,11 26,-19 8,32z"/>
    <path class="fil7" d="M11078 16087c-1,-23 2,-21 -6,-44 -7,-21 -17,-25 -24,-34l30 78z"/>
   </g>
   <g>
    <path class="fil8" d="M10184 16827c-38,-15 -64,37 -16,-72l-25 -6 -31 111 61 -22c3,-2 7,-8 11,-11z"/>
    <path class="fil8" d="M10991 17116c35,-39 29,-48 53,-108l32 20c-29,-61 -1,-27 -48,-48l-37 136z"/>
    <path class="fil8" d="M12999 17063c24,-20 13,30 30,-54 5,5 33,19 40,23l2 -38c-46,-15 2,-7 -53,-9l-19 78z"/>
    <path class="fil8" d="M12128 17769c35,38 -36,6 39,34 13,-16 19,35 11,-46l-27 -49c6,62 21,63 -23,61z"/>
    <path class="fil8" d="M9817 16030c-29,-12 -22,25 -22,-37l-29 65c93,-7 25,4 51,-28z"/>
    <path class="fil8" d="M9863 15751c9,-14 11,-2 22,-38 13,-42 3,-7 10,-54 -16,23 0,-22 -23,40 -14,36 -4,11 -9,52z"/>
   </g>
   <g>
    <path class="fil9" d="M12222 17580l32 -6 -18 -40 -140 -9c4,3 9,3 11,9l27 12c81,23 55,-27 88,34z"/>
    <path class="fil9" d="M11871 17580c-6,-65 16,-18 55,-29 40,-12 29,10 72,-26l-158 10c9,34 5,22 31,45z"/>
    <path class="fil9" d="M10334 16825c3,5 7,7 8,14 1,6 5,9 6,11 1,1 2,5 4,7l42 -7c-9,-26 -13,-46 -18,-58l-33 -60c0,1 12,57 12,59 -4,49 32,8 -21,34z"/>
    <path class="fil9" d="M9998 16025c19,35 -34,19 44,32 -15,-66 6,-31 -36,-70l-8 38z"/>
    <path class="fil9" d="M10015 15978l-13 -89c-22,23 -23,-33 -14,36 12,96 5,21 27,53z"/>
    <path class="fil9" d="M10060 14668l52 16 -25 -45c-30,15 -11,-1 -27,29z"/>
    <path class="fil9" d="M9808 15938c14,-18 28,30 9,-38 -11,-39 0,-12 -25,-39l16 77z"/>
    <path class="fil9" d="M11098 17135l-31 -95c4,43 -3,53 31,95z"/>
   </g>
   <g>
    <path class="fil10" d="M9898 14824c-2,-50 68,-8 142,-41l10 -56 -18 27c-2,3 -14,22 -16,27l-137 0c-31,88 -8,7 19,43z"/>
    <path class="fil10" d="M11914 17749c-4,93 -6,-22 -1,36 1,2 5,13 5,11 1,-2 5,6 8,8 75,-20 12,1 42,-33 -49,-16 -33,41 -27,-67 -4,5 -8,11 -11,15 -2,3 -6,9 -8,12 -2,4 -6,13 -8,18z"/>
    <path class="fil10" d="M10135 13912c-33,-12 -37,27 -19,-34l-29 3c-6,92 -7,32 15,59 81,10 -4,10 33,-28z"/>
    <path class="fil10" d="M12941 17396l6 -23c-30,-12 -32,30 -11,-49 -92,65 1,69 5,72z"/>
    <path class="fil10" d="M10309 13914c34,27 -49,32 52,19 -6,-77 3,-8 -22,-38 -4,28 3,19 -30,19z"/>
    <path class="fil10" d="M10953 17373c-29,-10 -24,27 -22,-34l-26 56c93,0 12,5 48,-22z"/>
   </g>
   <g>
    <path class="fil11" d="M13237 15569l14 -6 27 18c-49,44 -11,3 -78,28l61 27 35 -32c-2,-5 0,-51 0,-53 -6,-35 -2,-21 -14,-38 -12,87 11,4 -45,56z"/>
    <path class="fil11" d="M13112 15236l-9 45 77 -44c-18,-6 -8,-1 -29,-15 -3,-3 -19,-11 -21,-19 -2,-6 -7,-7 -11,-10l-7 43z"/>
    <path class="fil11" d="M12933 15053l-11 -12c-45,-2 -99,-15 -110,20l32 -20 18 54c1,-2 -5,-24 34,-35 64,-18 -32,11 25,3 15,-2 -18,40 12,-10z"/>
   </g>
   <g>
    <path class="fil12" d="M11630 10836c-29,31 15,12 -32,23 -61,14 -17,-3 -36,-13 -2,-102 -6,-27 33,-51 -30,-33 42,-42 -46,-22l3 99 101 9c14,-88 7,-10 -23,-45z"/>
    <path class="fil12" d="M13108 15860c21,22 -35,21 40,16l33 -50c21,-29 10,33 31,-60l2 -23c-49,36 -36,4 -19,72 -55,-13 -24,6 -76,-22l32 76 -43 -9z"/>
   </g>
   <g>
    <path class="fil13" d="M13027 13835c-95,3 -33,7 -56,-24 82,-15 33,-9 53,-26 -80,5 -20,12 -35,-21l-57 12 37 83c112,-3 16,1 58,-24z"/>
    <path class="fil13" d="M12936 14208c31,50 -15,14 45,39 0,-45 6,-28 -5,-75 -14,-56 -10,-20 -21,-37 8,84 16,51 -19,73z"/>
   </g>
   <g>
    <path class="fil14" d="M10950 10898c-14,10 -37,23 -58,24 -73,2 -39,15 -67,-42 34,-23 -49,-52 52,-9 -19,-23 21,-18 -58,-33l-3 104 159 -19c17,-49 8,-3 -25,-25z"/>
    <path class="fil14" d="M12522 10823l27 -25c-23,66 14,39 -52,55l25 -30zm0 0c-32,9 -9,-16 -43,23 17,19 -32,24 66,23 18,-32 16,33 18,-42 1,-81 -6,-30 -18,-46 -35,33 -13,18 -23,42z"/>
   </g>
   <g>
    <path class="fil15" d="M12342 15770c2,4 4,6 5,12 1,6 5,9 6,12l48 49 40 -42 -51 6 -48 -101 12 -31 -54 -6c30,30 15,5 31,50 4,10 9,41 11,51z"/>
    <path class="fil15" d="M11294 11807l-116 4 2 -172 -29 187c66,13 88,16 143,-19z"/>
    <path class="fil15" d="M12344 15296l69 21c-17,-44 -17,-37 -35,-81l-18 10c-12,52 9,26 -16,50z"/>
    <path class="fil15" d="M12322 15362l77 4c-18,-22 -38,-27 -55,-70 -2,3 -6,3 -7,9 0,5 -5,7 -6,10 -11,39 -5,16 -9,47z"/>
   </g>
   <g>
    <path class="fil16" d="M11633 11596l-181 12 5 -159 -24 168c50,12 63,11 115,6 58,-5 62,6 85,-27z"/>
    <path class="fil16" d="M12592 10921c24,-17 25,-55 28,-75 6,-54 -12,-16 11,-75l104 3c-14,-6 15,-10 -50,-22 -57,-10 -29,-4 -71,2l-22 167z"/>
   </g>
   <g>
    <path class="fil17" d="M12882 15316l-33 69c43,-28 38,-46 87,-51 23,-51 -50,-39 57,-42 -7,47 11,43 -52,104 71,-20 72,-72 70,-136l-129 56z"/>
    <path class="fil17" d="M12353 11983l24 2c-7,-25 -18,-45 -16,-72 5,-114 -12,-11 29,-59 46,18 17,-9 53,59 1,3 6,17 7,14 1,-2 5,10 8,15l-11 -86c-61,-33 -26,-23 -98,-11l4 138z"/>
    <path class="fil17" d="M12274 11570c37,60 81,42 155,33 0,-48 5,-129 -38,-150l29 147c-81,-1 -78,10 -146,-30z"/>
   </g>
   <g>
    <path class="fil18" d="M11405 14564l-99 -11 -6 -88 99 -9 6 108zm0 0l15 3 -21 -109c-58,-25 -58,-25 -116,2l0 105c36,9 10,12 59,13l63 -14z"/>
    <path class="fil18" d="M13076 13864c54,-32 27,5 39,-59 -76,7 -41,12 -57,24l37 1 -19 34z"/>
    <path class="fil18" d="M12955 14379l-41 18c18,34 -6,15 29,34l12 -52z"/>
    <path class="fil18" d="M14727 16431c35,-43 32,-44 40,-110l-40 110z"/>
    <path class="fil18" d="M14762 15252c-16,-94 7,-2 -7,-36 -12,-27 -14,-27 -23,-39l30 75z"/>
   </g>
   <g>
    <path class="fil19" d="M13162 10889c40,38 -52,7 54,33 21,5 49,2 70,2l-10 -80 -114 45z"/>
    <path class="fil19" d="M10950 10898l-73 -27c-101,-43 -18,-14 -52,9 28,57 -6,44 67,42 21,-1 44,-14 58,-24z"/>
    <path class="fil19" d="M12522 10823l-25 30c66,-16 29,11 52,-55l-27 25z"/>
   </g>
   <g>
    <path class="fil20" d="M12839 16274c-4,-68 -41,-103 -119,-117 17,76 55,95 119,117z"/>
    <path class="fil20" d="M12726 16504c76,20 28,3 41,-13l-48 -24 7 37z"/>
   </g>
   <g>
    <path class="fil21" d="M12833 16493c10,-86 -55,-106 -109,-127 2,78 53,105 109,127z"/>
    <path class="fil21" d="M12838 16380c-9,-74 -51,-102 -113,-117 9,78 49,97 113,117z"/>
    <path class="fil21" d="M12820 15827c-13,-67 -19,-81 -76,-79 6,73 20,70 76,79z"/>
    <path class="fil21" d="M12744 15536c28,39 -15,52 70,80 -2,-68 -5,-62 -70,-80z"/>
    <path class="fil21" d="M12283 15459l66 4c-47,-44 -25,1 -25,-85l-2 -16 -22 47c-3,10 -15,46 -17,50z"/>
   </g>
   <g>
    <path class="fil22" d="M12303 15644l20 -7 44 -17 -64 -32c-2,-1 -7,-2 -10,-3l39 -20 -48 -33 58 -33c-80,-20 -32,-4 -59,-40 -13,48 -28,86 -9,138 34,95 -33,-58 13,25l16 22z"/>
    <path class="fil22" d="M12425 15188c99,-1 34,3 54,-17 -5,-60 -5,-7 15,-28l17 16c27,-22 66,45 1,-74l61 20c-29,-39 41,-17 -45,-37 -4,5 -10,5 -13,14 -2,8 -8,10 -11,13 -3,3 -8,8 -11,12l-18 16c-9,9 2,-10 -25,25 -23,28 -2,0 -25,40z"/>
    <path class="fil22" d="M12776 11798c49,40 89,34 153,32 8,-67 -2,-116 -23,-166l8 150 -138 -16z"/>
    <path class="fil22" d="M12786 16068c-87,-14 -39,-20 -53,34l96 55c-21,-107 -27,-18 -43,-89z"/>
    <path class="fil22" d="M13162 10889c-30,20 -22,1 -23,33l145 26c6,-19 18,-2 15,-52 -6,-88 0,-24 -23,-52l10 80c-21,0 -49,3 -70,-2 -106,-26 -14,5 -54,-33z"/>
    <path class="fil22" d="M12741 15999l57 44c31,-20 22,34 29,-31l-75 -57c-18,27 -24,-35 -11,44z"/>
    <path class="fil22" d="M12824 15936c-16,-61 -28,-71 -81,-85 4,65 22,63 81,85z"/>
    <path class="fil22" d="M12815 15689l-16 -41c-103,-12 -30,-11 -53,23l55 49 14 -31z"/>
    <path class="fil22" d="M12615 15663c18,23 -33,25 45,14l-11 55c1,-2 26,-21 29,-53 5,-54 11,-15 -21,-44 -9,18 32,15 -42,28z"/>
   </g>
   <g>
    <path class="fil23" d="M11142 14605l-14 -195c148,9 301,-25 442,7l0 -11c-143,-33 -313,10 -449,-10 -4,41 -9,81 -7,122 0,10 2,41 4,49 11,42 -7,17 24,38z"/>
    <path class="fil23" d="M11315 13689c55,33 30,15 61,0 -21,-21 39,-30 -33,-21 -57,7 -15,6 -28,21z"/>
    <path class="fil23" d="M12301 14017l40 4 -4 -38c-65,27 -14,-3 -36,34z"/>
    <path class="fil23" d="M14660 14992c-1,-6 -2,-20 -3,-18 -1,3 -3,-13 -4,-17 -12,-25 -15,-28 -24,-39 9,47 1,15 14,50 2,4 7,15 8,13 1,-2 6,7 9,11z"/>
   </g>
   <g>
    <path class="fil24" d="M12490 11593l-29 -140 168 7 1 137 -140 -4zm0 0c25,27 108,19 155,15l-5 -155 -186 -10c-4,102 -8,143 36,150z"/>
    <path class="fil24" d="M11754 11980l0 -9c12,-70 28,-80 0,-133 -44,-4 -40,-22 -90,31l73 -15c2,5 5,10 5,14l7 46c4,42 -6,13 5,66z"/>
   </g>
   <g>
    <path class="fil25" d="M13150 15378l51 5 -35 40c124,-20 48,-2 68,7l-25 6c4,4 9,5 12,12 3,8 10,9 14,11 2,1 47,22 48,22l-60 -151c-2,-4 -5,-11 -8,-17 -39,17 -28,-21 -33,19 -66,33 -17,4 -32,46z"/>
    <path class="fil25" d="M12885 15965l110 -1 68 -83c-2,-4 -6,-10 -8,-12 -1,-1 -7,-5 -8,-6 -16,-9 -14,-1 -15,9l7 54c-52,-26 -32,-20 -71,-30l-9 56 -35 -36c-28,86 7,11 -39,49z"/>
    <path class="fil25" d="M12965 15495l62 21c-1,-4 -3,-14 -4,-12l-33 -58c31,-38 -14,-6 54,-23 -5,-2 -13,-10 -17,-5l-46 -1c0,0 -55,29 -57,30l45 25c2,1 8,4 10,5 2,1 7,3 10,6l-24 12z"/>
    <path class="fil25" d="M12710 15837c2,-16 10,-47 7,-64 -13,-89 -2,-26 -27,-58 -14,52 -35,88 20,122z"/>
    <path class="fil25" d="M12662 15360c30,37 10,24 55,41 -6,-35 3,-13 -7,-33 -13,-28 -13,-23 -24,-37 0,36 10,29 -24,29z"/>
    <path class="fil25" d="M13298 13653l36 -2c-34,-74 2,-26 -42,-50l-16 27 35 -10 -13 35z"/>
    <path class="fil25" d="M13059 15687c89,49 46,9 67,-3l-38 -25 16 30 -45 -2z"/>
   </g>
   <g>
    <path class="fil26" d="M12342 15706l48 101 51 -6c35,-27 49,53 25,-27 -75,-25 -29,8 -56,-51 5,-2 12,-2 16,-2l34 -4c56,-11 75,37 62,-27 -66,7 -66,23 -62,-36 -65,31 -3,28 -71,4l-47 48z"/>
    <path class="fil26" d="M13150 15378c15,-42 -34,-13 32,-46 5,-40 -6,-2 33,-19 -18,-26 6,-9 -29,-16 -19,-3 5,12 -37,-3 33,-29 20,-7 31,-57l-77 44 9 -45c-4,-1 -11,-7 -13,-3 -3,6 -20,-3 -25,-2 -29,2 -2,-4 -35,9 19,65 18,19 59,61l52 77z"/>
   </g>
   <g>
    <path class="fil27" d="M11243 13820l208 9c-13,-101 -70,-90 -171,-77 -25,27 -29,18 -37,68z"/>
    <path class="fil27" d="M11405 14106c-73,-4 -88,-16 -118,31 42,26 42,19 105,23l13 -54z"/>
   </g>
   <g>
    <path class="fil28" d="M11547 14230l0 117 -328 1c-102,-4 -69,3 -85,-31l-4 -88c40,20 13,10 36,29 46,38 13,27 76,28l30 -59 -43 36c-2,2 -6,6 -9,9 -98,-37 28,-34 -86,-51 -25,52 -19,73 -9,134 82,18 374,24 448,-3 20,-150 -4,-109 -26,-122z"/>
    <path class="fil28" d="M11239 13999l197 -5c3,1 8,4 12,5 -20,20 11,33 -107,27 -77,-3 -72,0 -102,-27zm-12 -17c1,85 18,63 114,66 97,3 116,24 116,-66 -46,-23 -182,-20 -230,0z"/>
    <path class="fil28" d="M9842 13804c-9,-47 -1,-15 -14,-49 -2,-4 -7,-6 -8,-13 -2,-7 -7,-7 -9,-11l31 73z"/>
    <path class="fil28" d="M13726 17343c38,-12 14,-2 42,-18 3,-2 9,-4 11,-10 2,-6 6,-7 9,-10l-62 38z"/>
   </g>
   <g>
    <path class="fil29" d="M12729 15374l31 1c1,-106 5,-76 26,-97l23 79c41,-66 35,-31 26,-116 -31,-20 -18,-28 -42,-60 -16,-23 -8,-11 -24,-23 -97,133 -51,99 -40,216z"/>
    <path class="fil29" d="M12575 15387l9 3 30 16c95,21 8,12 38,-28 -25,-6 -17,0 -35,-15 23,-44 -13,-9 49,-20 -39,-27 53,-56 -52,-17 0,126 8,25 -39,61z"/>
   </g>
   <g>
    <path class="fil30" d="M12569 15918l2 58c4,-1 44,-14 49,-14 2,-1 7,-2 10,-1l61 189 -68 -17c23,21 -37,19 60,32 32,-40 17,42 33,-63 2,-97 13,-130 -30,-207l-32 70c-28,-78 -9,-19 -57,-78 -2,2 -27,30 -28,31z"/>
    <path class="fil30" d="M12432 15864l96 62c85,19 11,5 41,-8 -46,-24 -49,29 -31,-40 4,-4 11,-14 12,-11 2,4 10,-7 12,-9 2,-2 8,-7 10,-9 2,-2 7,-6 9,-8 2,-1 6,-5 8,-7l-22 -8 -1 -144c-40,34 -32,24 -32,74 0,2 10,64 11,76 -94,11 -73,-56 -113,32z"/>
    <path class="fil30" d="M12855 15844c41,-24 49,5 40,-67 -4,-31 -31,-57 -54,-70l-1 101c6,37 2,16 15,36z"/>
    <path class="fil30" d="M12555 15513l56 11c-24,-48 -41,-34 -2,-74 3,-3 11,-6 16,-9 -70,-17 -21,2 -36,-30l-112 -7 0 26 91 -9 -13 92z"/>
    <path class="fil30" d="M13087 15187l3 -57c-100,11 -32,8 -58,-13l-55 70c61,-4 50,-6 98,-45 -17,88 -5,14 12,45z"/>
    <path class="fil30" d="M12300 15669l54 6 -12 31 47 -48c-32,-54 -13,2 -66,-21l-20 7 -3 25z"/>
   </g>
   <g>
    <path class="fil31" d="M12729 15374l-8 46c8,-3 17,-15 21,-10 43,54 8,-44 75,-17 3,1 21,23 27,28 42,38 -2,16 63,43l34 -53 -44 -11c42,-32 34,-3 39,-66 -49,5 -44,23 -87,51l33 -69c-2,-5 -11,-24 -13,-28l-34 -47c9,85 15,50 -26,116l-23 -79c-21,21 -25,-9 -26,97l-31 -1z"/>
    <path class="fil31" d="M12961 15837c0,43 46,35 71,35 1,-10 -1,-18 15,-9 1,1 7,5 8,6 2,2 6,8 8,12l15 14c4,-4 8,-15 9,-12 9,31 12,-16 13,-17 30,-35 -17,-19 8,-6l43 9 -32 -76c52,28 21,9 76,22 -17,-68 -30,-36 19,-72l4 -20c-42,14 -27,7 -62,27 -57,32 -14,25 -130,81 -2,-72 25,-110 -20,-145 3,27 8,81 2,107 -14,58 9,44 -47,44z"/>
    <path class="fil31" d="M12862 15674l31 14 5 -19c10,0 18,-6 21,-1 3,5 12,-2 17,-3 0,-1 50,-12 50,-13 -9,-37 27,-33 -13,-30l18 14c-1,-73 -19,-70 37,-81 14,-19 8,-14 29,-32 1,-1 37,-21 39,-22l-69 15 -62 -21c-38,20 -38,-33 -31,21 27,63 81,13 -30,85 -33,21 -33,37 -42,73z"/>
    <path class="fil31" d="M12283 15459c27,36 -21,20 59,40l-58 33 48 33 31 -40c24,-50 5,-13 21,-61l57 26 -21 -45 57 -15 0 -26 -51 24c-32,-35 -41,-47 -102,-50 0,86 -22,41 25,85l-66 -4z"/>
    <path class="fil31" d="M12555 15513l-64 -1c39,19 30,23 45,46l34 1c-2,49 -5,10 12,70 37,-13 27,14 43,-17l-8 -132c23,-69 36,32 83,-85 -9,-7 -47,-17 -48,-17 -30,40 57,49 -38,28l-30 -16 5 21c15,32 -34,13 36,30 -5,3 -13,6 -16,9 -39,40 -22,26 2,74l-56 -11z"/>
    <path class="fil31" d="M12573 15105l-61 -20c65,119 26,52 -1,74 25,55 32,13 6,50 97,-18 78,-49 129,-70l38 -9c-25,-23 -28,26 -14,-95 -42,54 -7,-56 -41,73l-25 -34c-2,-26 30,-21 -32,-20l1 51z"/>
    <path class="fil31" d="M13210 15723l7 -18c20,-37 -21,19 14,-24 31,-39 28,39 30,-45l-61 -27c67,-25 29,16 78,-28l-27 -18 -74 17c-5,31 -7,47 -15,75 -8,29 -14,30 -14,58 4,1 11,0 13,1l24 1c73,10 -66,-56 25,8z"/>
    <path class="fil31" d="M13237 15569c56,-52 33,31 45,-56l-47 -4 48 -28c-1,0 -46,-21 -48,-22 -4,-2 -11,-3 -14,-11 -3,-7 -8,-8 -12,-12 -12,14 -24,31 -31,45 27,49 17,60 59,88z"/>
   </g>
   <g>
    <path class="fil32" d="M11306 14724c-33,30 -20,-32 -31,51l-9 116 -136 1 6 -233 431 4c-25,-26 16,-15 -53,-27l-387 9c-28,74 -25,185 -2,267l158 -8 23 -180z"/>
    <path class="fil32" d="M13020 13724c27,-25 46,49 19,-46 -104,-21 -31,-4 -59,12l45 2 -5 32z"/>
    <path class="fil32" d="M14253 13857c10,-13 11,-13 22,-41 10,-28 1,51 6,-41 -3,5 -8,6 -10,14 -1,9 -6,11 -7,15 -12,39 -6,2 -11,53z"/>
   </g>
   <g>
    <path class="fil33" d="M11920 14408c18,24 15,9 20,48 1,14 -1,49 3,76 12,-29 -8,-5 31,-35 19,-14 37,-25 53,-35 36,-24 74,-47 110,-72 -93,-13 -49,-2 -81,-42 -8,-10 -12,-16 -21,-44 -54,19 -87,61 -115,104z"/>
    <path class="fil33" d="M11531 14172l62 -2 52 -6c34,-74 12,-5 14,-67l-4 -57 -97 -42 -27 174z"/>
    <path class="fil33" d="M11808 14275c57,51 3,23 88,85 18,-15 31,-26 51,-47 2,-3 23,-27 23,-28 16,-24 6,-8 14,-30l10 -2c-60,-9 -27,-17 -68,14l-47 -44c13,27 8,3 -24,18 -50,21 7,13 -47,34z"/>
   </g>
   <g>
    <path class="fil34" d="M11621 14334l2 27 -2 61 51 11 101 -161 2 -52c-43,12 -30,-12 -47,28 -16,-99 9,-40 -43,-60l-64 146z"/>
    <path class="fil34" d="M11896 14360c-85,-62 -31,-34 -88,-85 -32,76 -112,155 -89,208 53,30 45,16 91,-30 34,-35 55,-55 86,-93z"/>
    <path class="fil34" d="M12046 14632l-2 -122c-54,25 -164,86 -181,142 41,69 97,11 183,-20z"/>
    <polygon class="fil34" points="12064,14783 12168,14635 11911,14742 11933,14804 "/>
    <path class="fil34" d="M11943 14532c-4,-27 -2,-62 -3,-76 -5,-39 -2,-24 -20,-48 -159,101 -149,200 -59,168 14,-5 52,-31 82,-44z"/>
    <path class="fil34" d="M11948 14908c73,1 67,-9 87,-70l-91 11 4 59z"/>
   </g>
   <g>
    <path class="fil35" d="M12604 15074l25 34c34,-129 -1,-19 41,-73 -14,121 -11,72 14,95 54,14 12,-11 47,20l34 -66c39,23 0,-7 28,31 6,8 22,32 29,39 35,-15 23,-12 54,-23 24,-9 18,14 46,-30l44 62c54,-47 21,-16 44,-60 -5,-3 -10,-8 -14,-10l-63 -40c-30,50 3,8 -12,10 -57,8 39,-21 -25,-3 -39,11 -33,33 -34,35l-18 -54 -32 20c-115,-9 -110,-49 -208,13z"/>
    <path class="fil35" d="M12402 15241c4,42 -16,24 6,51l99 -35c-16,-28 -7,-14 -28,-23 -27,-13 -37,-3 -37,-40 -37,22 -11,-19 -40,47z"/>
   </g>
   <g>
    <path class="fil36" d="M12674 16550l202 5 -2 -291c-41,41 -21,-75 -34,78l10 140c0,55 -1,41 -12,68 -14,-4 -55,-12 -64,-45 -2,-8 -4,-10 -7,-14 -13,16 35,33 -41,13l-16 28c-2,-4 -4,-12 -7,-17 21,-73 45,-273 -20,-327l-9 362z"/>
    <path class="fil36" d="M12484 13879c1,61 56,10 20,1 0,0 -2,-1 -2,-1 -7,0 -19,-46 -18,0z"/>
   </g>
   <g>
    <path class="fil37" d="M12138 14458c90,-40 14,-10 46,-4l22 104c65,-14 17,7 56,-25 47,-34 97,-66 111,-100l22 -40c-112,17 -29,32 -100,-47 -48,18 -42,19 -83,46 -50,33 -44,18 -74,66z"/>
    <path class="fil37" d="M11746 14043l68 -3c20,27 31,41 68,59l68 -100c-21,-62 -3,-40 -56,-70 -57,-33 -24,4 -80,-49l-68 163z"/>
    <path class="fil37" d="M11918 14132c70,26 9,-2 46,20 21,12 18,14 42,29l-12 72 -10 2c62,-32 113,-82 145,-143 -56,-7 -9,0 -23,-14l-93 -100 -95 134z"/>
    <path class="fil37" d="M11558 13998l97 42 4 57c43,-42 59,-109 86,-172 -4,-2 -9,-6 -12,-8 -3,-1 -8,-5 -11,-7l-68 -23c-51,-19 -12,16 -55,-49l-41 160z"/>
    <path class="fil37" d="M12108 14227c34,64 16,68 73,125 58,-27 53,-19 88,-64 -36,-8 -15,4 -34,-16 15,-35 -9,-50 -30,-91 -2,-3 -5,-8 -6,-11 -3,-6 -9,-28 -10,-34 -17,16 -23,19 -39,35 -64,65 45,-60 -18,19 -23,28 -3,-1 -24,37z"/>
    <path class="fil37" d="M10980 13990c4,12 13,46 20,59 25,45 15,22 35,41 43,-26 69,-33 111,-22l-45 -205 -9 123 -44 -38c-48,35 -27,35 -68,42z"/>
    <path class="fil37" d="M10736 14288c33,64 -3,28 62,59 17,-10 25,-13 41,-24 12,-7 42,-29 47,-32 -42,-56 -56,-74 -81,-136 -39,66 -54,65 -38,128l-31 5z"/>
    <path class="fil37" d="M10603 14602l118 51c2,-90 -5,66 6,-30 0,-2 0,-8 1,-10l28 -21c-15,-21 -5,-13 -26,-32 -16,-15 -24,-18 -40,-29 -43,-29 -41,-28 -82,-48 6,54 2,25 -10,68 5,3 18,14 20,16 2,1 8,11 9,8 1,-3 6,7 11,15l-35 12z"/>
    <path class="fil37" d="M10656 14440c34,50 28,38 87,65 33,-79 -4,-20 53,-79l-105 -100c-27,56 -35,66 -7,110l-28 4z"/>
    <path class="fil37" d="M10586 14772l181 32 22 -62 -131 -53c-9,50 -23,28 -72,83z"/>
   </g>
   <g>
    <path class="fil38" d="M10889 14205c26,59 40,67 75,121 15,22 21,40 39,64 48,64 -3,28 68,42l1 -114 -92 -200c-42,13 -21,3 -84,4 -1,66 14,47 -7,83z"/>
    <path class="fil38" d="M11685 14188c52,20 27,-39 43,60 17,-40 4,-16 47,-28l-2 52 109 -173c-37,-18 -48,-32 -68,-59l-68 3 -61 145z"/>
    <path class="fil38" d="M10798 14347c1,3 3,5 3,10 1,4 4,8 5,9 7,12 6,12 20,28 97,108 106,115 168,84 -10,-57 -77,-138 -108,-187 -5,3 -35,25 -47,32 -16,11 -24,14 -41,24z"/>
    <path class="fil38" d="M12044 14510l2 122 160 -74 -22 -104c-32,-6 44,-36 -46,4 -53,8 -56,15 -94,52z"/>
    <path class="fil38" d="M10743 14505c33,38 98,100 159,55 -6,-63 -72,-111 -106,-134 -57,59 -20,0 -53,79z"/>
    <path class="fil38" d="M11035 14090c-3,53 2,59 36,98l96 -15 -21 -105c-42,-11 -68,-4 -111,22z"/>
    <path class="fil38" d="M12035 14304c9,28 13,34 21,44 32,40 -12,29 81,42l44 -38c-57,-57 -39,-61 -73,-125l-73 77z"/>
    <path class="fil38" d="M11855 14241c32,-15 37,9 24,-18l47 44c41,-31 8,-23 68,-14l12 -72c-24,-15 -21,-17 -42,-29 -37,-22 24,6 -46,-20l-63 109z"/>
    <path class="fil38" d="M10721 14653c60,43 70,46 113,1 -13,-55 -30,-55 -78,-62l-28 21c-1,2 -1,8 -1,10 -11,96 -4,-60 -6,30z"/>
   </g>
   <g>
    <path class="fil39" d="M11054 13345l49 241c37,20 40,-6 15,20l18 -100 136 -32c7,12 51,56 17,101l12 -211 -206 -8c-5,0 -13,1 -41,-11z"/>
    <path class="fil39" d="M11675 13466l6 85 38 -49c48,25 34,18 104,19 5,7 18,27 19,28l40 39 38 -120c-31,18 -40,-9 -11,14 -12,-55 -8,-34 -21,-64 -23,-9 -151,-45 -178,-22l-2 -88c-3,4 -7,5 -8,12 -2,11 -35,39 -25,146z"/>
    <path class="fil39" d="M11375 13327l31 150c33,-42 3,-34 89,-33 78,1 55,23 120,4l9 -41c-46,-60 28,-126 -212,-88 -5,1 -31,7 -37,8z"/>
    <path class="fil39" d="M10820 13612l22 32c113,-66 133,-62 148,-97 7,11 9,-4 24,39 12,38 6,25 0,39l9 -120 -15 -131c-61,28 -169,164 -188,238z"/>
    <path class="fil39" d="M12580 14153c5,57 -13,-9 31,36 2,3 7,6 10,9l15 23c21,38 21,97 22,149l90 -35c-9,-91 -23,-214 -78,-261 -16,15 -23,19 -48,39 -33,26 -29,12 -42,40z"/>
    <path class="fil39" d="M11951 13572l10 33c22,-47 42,-25 74,-17l33 -29 185 -7 10 -30 -212 -63c-22,-11 -22,-10 -46,-20 -37,35 -52,84 -54,133z"/>
   </g>
   <g>
    <path class="fil40" d="M11567 14895c-38,-73 -28,-148 -15,-231 -71,2 -132,-8 -181,34 54,65 28,94 38,202l158 -5z"/>
    <path class="fil40" d="M11420 14567l124 20c0,-58 8,-120 -14,-174 -145,0 -108,-2 -131,45l21 109z"/>
   </g>
   <g>
    <path class="fil41" d="M11635 13656l13 37c89,-23 90,-7 126,10 28,14 11,13 53,21l55 -136 -40 -39c-1,-1 -14,-21 -19,-28 -70,-1 -56,6 -104,-19l-38 49 -6 -85c-29,44 -43,130 -40,190z"/>
    <path class="fil41" d="M12295 14346c71,79 -12,64 100,47l-22 40c97,-32 114,-49 244,-40l14 -10 -85 -73c-23,-40 -1,-24 -26,-60 -1,-1 -35,-30 -39,-33 -65,26 -152,82 -186,129z"/>
    <path class="fil41" d="M10668 13891l80 112c56,-61 -35,-14 99,-113l-1 -63c3,-51 -38,-124 -58,-174 -45,53 -108,160 -120,238z"/>
    <path class="fil41" d="M11407 13643c23,94 35,61 70,118 40,65 1,103 -10,152l39 19c35,10 19,-12 31,-64 6,-25 10,-55 15,-85 13,-70 25,-123 35,-197 -47,44 -40,-55 -40,51 2,0 5,-3 5,-4 9,-50 7,-20 -21,-31 -35,-15 -64,-10 -104,-11 -33,31 -45,-48 -20,52z"/>
    <path class="fil41" d="M10879 13741l75 183c3,-5 16,-29 18,-32 23,-27 16,-20 42,-34 58,-33 29,11 71,-58l-14 -140c-44,9 -96,16 -123,33 -79,48 10,52 -69,48z"/>
    <path class="fil41" d="M12086 13895c45,102 -42,-7 52,80l30 45c24,94 5,12 -1,47 0,-32 -5,-8 13,-9 34,-15 22,-5 57,-39 33,-34 26,-28 46,-65l-15 6c5,-24 21,34 1,-44 -14,-57 -82,-79 -147,-73 -29,20 -27,1 -36,52z"/>
    <path class="fil41" d="M12280 14056c40,42 11,-6 42,44 17,29 26,61 35,91l64 -6c55,-22 72,-27 104,-74l-62 13c-10,-20 -17,-50 -27,-72 -20,-44 8,-5 -28,-43l-67 12 -40 -4c-29,32 -14,17 -21,39z"/>
    <path class="fil41" d="M11871 13750l15 43c73,3 44,-9 86,22 67,49 -20,15 63,47 38,-39 27,-23 47,-79 -42,-22 -19,-39 -93,-75 -58,-29 -52,11 -70,-58 -34,28 -38,54 -48,100z"/>
    <path class="fil41" d="M11129 13724l49 206 44 -12c-15,-63 -50,-78 -21,-145 32,-74 49,-16 71,-114 -136,-56 -109,-9 -143,65z"/>
   </g>
   <g>
    <path class="fil42" d="M10575 14111c7,60 30,63 71,102 17,18 26,29 42,44 33,29 13,17 48,31l31 -5c-16,-63 -1,-62 38,-128 -24,-9 -10,0 -35,-32 -17,-20 -29,-41 -42,-61 -28,-42 -48,-79 -76,-118 -25,21 -6,-6 -32,39 -10,17 -9,19 -15,37 -13,33 -19,57 -30,91z"/>
    <path class="fil42" d="M11599 13838c43,65 4,30 55,49l68 23c3,2 8,6 11,7 3,2 8,6 12,8l82 -201c-42,-8 -25,-7 -53,-21 -36,-17 -37,-33 -126,-10l-13 -37c-19,37 -38,121 -36,182z"/>
    <path class="fil42" d="M10748 14003l141 202c21,-36 6,-17 7,-83 63,-1 42,9 84,-4 -29,-69 -88,-239 -134,-291l1 63c-134,99 -43,52 -99,113z"/>
    <polygon class="fil42" points="10753,14909 10753,14849 10448,14789 10448,14910 "/>
    <path class="fil42" d="M10511 14364l145 76 28 -4c-28,-44 -20,-54 7,-110 -33,-58 -84,-108 -141,-141l-39 179z"/>
    <path class="fil42" d="M12189 14136c1,6 7,28 10,34 1,3 4,8 6,11 21,41 45,56 30,91 19,20 -2,8 34,16l152 -103 -64 6c-9,-30 -18,-62 -35,-91 -31,-50 -2,-2 -42,-44l-91 80z"/>
    <path class="fil42" d="M11814 13880c56,53 23,16 80,49 53,30 35,8 56,70l85 -137c-83,-32 4,2 -63,-47 -42,-31 -13,-19 -86,-22l-15 -43 -57 130z"/>
    <path class="fil42" d="M10508 14757l78 15c49,-55 63,-33 72,-83l-192 -77 3 21 -5 90 44 34z"/>
    <path class="fil42" d="M12013 13998l93 100c14,14 -33,7 23,14 52,-27 22,2 51,-54 -18,1 -13,-23 -13,9 6,-35 25,47 1,-47l-30 -45c-94,-87 -7,22 -52,-80l-73 103z"/>
    <path class="fil42" d="M10471 14559l132 43 35 -12c-5,-8 -10,-18 -11,-15 -1,3 -7,-7 -9,-8 -2,-2 -15,-13 -20,-16 12,-43 16,-14 10,-68l-109 -68 -28 144z"/>
    <path class="fil42" d="M10954 13924l26 66c41,-7 20,-7 68,-42l44 38 9 -123 -16 -63c-42,69 -13,25 -71,58 -26,14 -19,7 -42,34 -2,3 -15,27 -18,32z"/>
   </g>
   <g>
    <path class="fil43" d="M11733 13135l5 68c51,16 91,22 145,37 74,19 71,28 128,11l38 -87c-121,-78 -79,-59 -261,-94 -21,33 -17,27 -28,76l-2 -100c-11,16 -14,8 -22,40 -9,37 -3,23 -3,49z"/>
    <path class="fil43" d="M12308 13553l323 74 33 -58c-47,10 -52,-5 -98,-40 -3,-2 -7,-5 -10,-7 -3,-2 -7,-5 -10,-7l-124 -101 14 -45c-67,46 -96,118 -128,184z"/>
    <path class="fil43" d="M12052 13325c16,37 10,5 133,85 104,67 58,-10 89,82 0,-1 3,1 20,-20 1,-2 17,-24 20,-29 28,-41 23,-30 40,-76 -50,-3 4,2 -44,-29l-219 -105c-32,31 -35,42 -39,92z"/>
    <path class="fil43" d="M11393 13217c360,0 145,16 260,41l32 -172c-41,49 -34,-67 -34,69l-14 -16c-3,-1 -7,-5 -10,-6 -40,-18 -181,-8 -226,-6l-8 90z"/>
    <path class="fil43" d="M11119 13268c65,-8 4,-8 83,-18 41,-5 76,-6 110,-12l12 -119c-67,21 -58,20 -114,60 -21,15 -30,18 -49,36 -33,30 -25,26 -42,53z"/>
   </g>
   <g>
    <path class="fil44" d="M12122 13843c65,-6 133,16 147,73 20,78 4,20 -1,44l15 -6c19,-8 32,-13 57,-26 49,-109 64,-97 101,-153 -65,-46 -157,-74 -241,-81 -26,52 -68,90 -78,149z"/>
    <path class="fil44" d="M11368 13616l39 27c-25,-100 -13,-21 20,-52 40,1 69,-4 104,11 28,11 30,-19 21,31 0,1 -3,4 -5,4 0,-106 -7,-7 40,-51l28 -138c-65,19 -42,-3 -120,-4 -86,-1 -56,-9 -89,33l-31 -150c38,-62 11,-161 -6,-238l-7 4 6 523z"/>
    <path class="fil44" d="M11312 13238l-11 126 -12 211c34,-45 -10,-89 -17,-101l-136 32 -18 100c25,-26 22,0 -15,-20l26 138c34,-74 7,-121 143,-65 33,-43 -4,-13 51,-41l0 -500 1 1 -12 119z"/>
    <path class="fil44" d="M11919 13650c18,69 12,29 70,58 74,36 51,53 93,75 34,-21 57,-58 75,-108l-110 -39 -12 -48c-32,-8 -52,-30 -74,17l-10 -33c-41,26 -29,38 -32,78z"/>
    <path class="fil44" d="M10842 13644l37 97c79,4 -10,0 69,-48 27,-17 79,-24 123,-33 -19,-59 -18,-118 -48,-155l-9 120c6,-14 12,-1 0,-39 -15,-43 -17,-28 -24,-39 -15,35 -35,31 -148,97z"/>
    <path class="fil44" d="M12481 14217c4,3 38,32 39,33 25,36 3,20 26,60l85 73 27 -13c-1,-52 -1,-111 -22,-149l-15 -23c-3,-3 -8,-6 -10,-9 -44,-45 -26,21 -31,-36l-99 64z"/>
    <path class="fil44" d="M12408 14009c36,38 8,-1 28,43 10,22 17,52 27,72l62 -13c38,-8 10,5 57,-24 20,-11 34,-22 52,-34 -63,-61 -143,-62 -226,-44z"/>
   </g>
   <g>
    <path class="fil45" d="M12874 16230l127 16 79 8c-64,-52 -42,-116 -37,-290 -20,-9 -13,-6 -48,0l-110 1 -18 -51 7 316z"/>
    <path class="fil45" d="M12572 15054c62,-1 30,-6 32,20 98,-62 93,-22 208,-13 11,-35 65,-22 110,-20 42,-67 16,4 20,-77l-10 -2 -369 0c10,5 -8,20 103,20 -1,5 -4,8 -5,14 -8,40 -24,23 -29,24 -6,2 -2,-11 -27,2l-33 32z"/>
    <path class="fil45" d="M12441 15490c40,5 5,-21 50,22l64 1 13 -92 -91 9 -57 15 21 45z"/>
    <path class="fil45" d="M12941 15411l0 -15c63,-61 45,-57 52,-104 -107,3 -34,-9 -57,42 -5,63 3,34 -39,66l44 11z"/>
   </g>
   <g>
    <path class="fil46" d="M11399 14458c23,-47 -14,-45 131,-45 22,54 14,116 14,174l-124 -20 -15 -3 -63 14c-49,-1 -23,-4 -59,-13l0 -105c58,-27 58,-27 116,-2zm-257 147l427 -3 1 -185c-141,-32 -294,2 -442,-7l14 195z"/>
    <path class="fil46" d="M11306 14724l10 -27 55 1c49,-42 110,-32 181,-34 -13,83 -23,158 15,231l0 -232 -431 -4 -6 233 136 -1 9 -116c11,-83 -2,-21 31,-51z"/>
   </g>
   <g>
    <path class="fil47" d="M11708 13308l2 88c27,-23 155,13 178,22 13,30 9,9 21,64 -29,-23 -20,4 11,-14l91 -217c-57,17 -54,8 -128,-11 -54,-15 -94,-21 -145,-37l-5 -68c-18,43 -33,115 -25,173z"/>
    <path class="fil47" d="M11375 13327c6,-1 32,-7 37,-8 240,-38 166,28 212,88l29 -149c-115,-25 100,-41 -260,-41 9,-18 18,4 6,-62 -14,-80 -10,-43 -30,-66 17,77 44,176 6,238z"/>
    <path class="fil47" d="M12005 13439c24,10 24,9 46,20l212 63 11 -30c-31,-92 15,-15 -89,-82 -123,-80 -117,-48 -133,-85 -15,16 -7,-15 -33,43 -26,57 -12,28 -14,71z"/>
    <path class="fil47" d="M11119 13268c-23,7 -5,-12 -42,19 -27,24 -18,20 -30,40l7 18c28,12 36,11 41,11l206 8 11 -126c-34,6 -69,7 -110,12 -79,10 -18,10 -83,18z"/>
   </g>
   <g>
    <path class="fil48" d="M13170 14203c42,32 82,17 184,16l152 4c39,9 16,0 39,16l4 -78 -35 -148c-181,13 -297,53 -344,190z"/>
    <path class="fil48" d="M13168 14604c-24,78 -11,16 14,39l457 0 7 -82c-210,-49 -358,-114 -478,43z"/>
   </g>
   <g>
    <path class="fil49" d="M12592 10921l-341 -6 -32 0c76,45 153,34 245,34 -58,37 -70,-1 -85,52 30,7 57,8 92,36l256 7 -5 -215 116 -4 -52 -51 -51 0 -104 -3c-23,59 -5,21 -11,75 -3,20 -4,58 -28,75z"/>
    <path class="fil49" d="M11595 11033c42,-43 2,-25 78,-30l1 -35 -155 -13 81 -6 -121 -4c-2,-2 -56,36 -83,93l199 -5z"/>
   </g>
   <g>
    <path class="fil50" d="M12278 15952c58,91 235,142 345,181l68 17 -61 -189c-3,-1 -8,0 -10,1 -5,0 -45,13 -49,14l-2 -58c-30,13 44,27 -41,8l-96 -62 -31 -21 -48 -49c-1,-3 -5,-6 -6,-12 -1,-6 -3,-8 -5,-12l-39 21c1,69 -14,108 25,149 -27,11 36,19 -50,12z"/>
    <path class="fil50" d="M12360 15246l18 -10 24 5c29,-66 3,-25 40,-47l-17 -6c23,-40 2,-12 25,-40 27,-35 16,-16 25,-25l18 -16c3,-4 8,-9 11,-12 3,-3 9,-5 11,-13 3,-9 9,-9 13,-14 86,20 16,-2 45,37l-1 -51 33 -32c25,-13 21,0 27,-2 5,-1 21,16 29,-24 1,-6 4,-9 5,-14 -111,0 -93,-15 -103,-20 -91,2 -184,0 -276,-1 -46,0 -93,-2 -138,-2 -77,-1 -95,-17 -119,40 71,-57 83,-31 304,-11 -41,67 -40,137 -30,252 5,59 10,-3 56,6z"/>
    <path class="fil50" d="M12566 15682l1 144 22 8c24,-32 50,-49 60,-102l11 -55c-78,11 -27,9 -45,-14 -47,-8 -8,-14 -49,19z"/>
    <path class="fil50" d="M12460 15654c-4,59 -4,43 62,36 4,-8 2,-16 22,-37 42,-45 11,-12 38,-24 -17,-60 -14,-21 -12,-70l-34 -1c-47,42 -41,73 -76,96z"/>
    <path class="fil50" d="M12575 15387c47,-36 39,65 39,-61 105,-39 13,-10 52,17l-4 17c34,0 24,7 24,-29 -31,-44 -77,-58 -142,-73l31 129z"/>
   </g>
   <g>
    <path class="fil51" d="M12091 13233l219 105c48,31 -6,26 44,29 32,-21 108,-138 125,-181 -3,-3 -7,-8 -9,-10l-26 -25c-46,-34 -69,-23 -118,-35l-84 -36c-69,-34 -18,12 -75,-38l-42 70c-31,69 -33,60 -34,121z"/>
    <path class="fil51" d="M12466 13305c-36,38 -16,7 -30,64l-14 45 124 101c3,2 7,5 10,7 3,2 7,5 10,7 46,35 51,50 98,40 36,-3 28,0 52,-52l4 -56c-119,-59 -18,-9 -97,-89 -83,-84 -110,-72 -157,-67z"/>
    <path class="fil51" d="M11369 13089c20,23 16,-14 30,66 12,66 3,44 -6,62l8 -90c45,-2 186,-12 226,6 3,1 7,5 10,6l14 16c0,-136 -7,-20 34,-69l15 -89c-13,-49 13,-21 -32,-29 -109,14 -222,63 -299,121z"/>
    <path class="fil51" d="M12976 13932c-44,39 -25,44 1,115 18,52 29,110 50,160l84 -23 0 -21 -16 -11c31,-32 44,6 1,-116 -14,-38 -21,-76 -26,-112l-94 8z"/>
    <path class="fil51" d="M12669 13651l117 72c2,-5 19,-28 21,-33 20,-57 11,-18 12,-87 -48,-21 -30,0 -58,-34 -52,26 -59,38 -92,82z"/>
   </g>
   <g>
    <path class="fil52" d="M12466 13305c47,-5 74,-17 157,67 79,80 -22,30 97,89l-4 56c22,-7 36,-21 61,-42 16,-14 23,-17 36,-34 29,-36 12,-13 30,-50 -99,-82 -9,55 -15,-49 -2,-39 26,9 -7,-33 -1,-1 -37,-37 -42,-43l-31 -43c-35,-53 -16,-39 -79,-63l-61 -50c-43,27 -115,140 -142,195z"/>
    <path class="fil52" d="M11760 12946l-2 100 2 100c11,-49 7,-43 28,-76 182,35 140,16 261,94l98 -240c-106,-20 -305,-3 -387,22z"/>
    <path class="fil52" d="M13070 13924c5,36 12,74 26,112 43,122 30,84 -1,116l16 11c24,-10 4,3 30,-16 1,-1 25,-25 25,-25 28,-35 18,-24 34,-62 -23,-1 -18,-25 -18,8 92,-106 -31,-255 -35,-258 10,86 -34,67 -77,114z"/>
    <path class="fil52" d="M12761 13569c28,34 10,13 58,34 -1,69 8,30 -12,87 -2,5 -19,28 -21,33 26,-4 65,-19 89,-29l104 -59 -61 -111c-30,-29 -12,-8 -42,-20 -38,-16 -19,36 -30,-23 -35,19 -62,30 -85,88z"/>
   </g>
   <g>
    <path class="fil53" d="M11633 14902l266 -5c-30,-177 -131,-358 -261,-408l-5 413z"/>
    <path class="fil53" d="M11048 14497c-126,70 -204,210 -245,400l245 2 0 -402z"/>
    <polygon class="fil53" points="11274,13910 11316,13919 11311,13874 11274,13882 "/>
   </g>
   <g>
    <path class="fil54" d="M12147 12924l-98 240 -38 87 -91 217 -38 120 -55 136 -82 201c-27,63 -43,130 -86,172 -2,62 20,-7 -14,67 -18,72 -10,32 -31,52l7 118 64 -146 61 -145 68 -163 57 -130c10,-46 14,-72 48,-100 3,-40 -9,-52 32,-78 2,-49 17,-98 54,-133 2,-43 -12,-14 14,-71 26,-58 18,-27 33,-43 4,-50 7,-61 39,-92 1,-61 3,-52 34,-121l42 -70c-3,-56 2,-39 26,-97 -21,-31 28,-28 -46,-21z"/>
    <path class="fil54" d="M11700 12997l-15 89 -32 172 -29 149 -9 41 -28 138c-10,74 -22,127 -35,197 -5,30 -9,60 -15,85 -12,52 4,74 -31,64l-8 150 -18 89 51 1 27 -174 41 -160c-2,-61 17,-145 36,-182 -3,-60 11,-146 40,-190 -10,-107 23,-135 25,-146 1,-7 5,-8 8,-12 -8,-58 7,-130 25,-173 0,-26 -6,-12 3,-49 8,-32 11,-24 22,-40l2 -100 -39 -1 -21 52z"/>
    <path class="fil54" d="M11008 13374l15 131c30,37 29,96 48,155l14 140 16 63 45 205 21 105c88,2 32,0 56,-19 -2,-120 -8,-25 -35,-91 -15,-40 -10,-89 -10,-133l-49 -206 -26 -138 -49 -241 -7 -18 -39 47z"/>
    <path class="fil54" d="M10788 13653c20,50 61,123 58,174 46,52 105,222 134,291l92 200 -1 -130c-34,-39 -39,-45 -36,-98 -20,-19 -10,4 -35,-41 -7,-13 -16,-47 -20,-59l-26 -66 -75 -183 -37 -97 -22 -32c-44,21 -17,-12 -32,41z"/>
    <path class="fil54" d="M12583 13048l-104 138c-17,43 -93,160 -125,181 -17,46 -12,35 -40,76 -3,5 -19,27 -20,29 -17,21 -20,19 -20,20l-11 30 -10 30 55 1c32,-66 61,-138 128,-184 14,-57 -6,-26 30,-64 27,-55 99,-168 142,-195l26 -71 -39 -24 -12 33z"/>
    <path class="fil54" d="M12843 13391c-18,37 -1,14 -30,50 -13,17 -20,20 -36,34 -25,21 -39,35 -61,42 -24,52 -16,49 -52,52l-33 58 -8 16 46 8c33,-44 40,-56 92,-82 23,-58 50,-69 85,-88 17,-53 23,-36 82,-99 34,-36 57,-61 92,-92l-29 -29c-27,28 -45,47 -74,77 -11,11 -23,25 -35,34 -25,20 -17,12 -39,19z"/>
    <polygon class="fil54" points="11323,13618 11368,13616 11362,13093 11323,13118 "/>
    <path class="fil54" d="M13137 13704l7 48c47,-19 111,-64 154,-99l13 -35 -35 10c-61,19 -79,43 -139,76z"/>
    <polygon class="fil54" points="12658,14370 12631,14383 12617,14393 12688,14412 12725,14394 12755,14381 12748,14335 "/>
    <path class="fil54" d="M13027 14207l-9 57 50 -11c23,-23 28,-27 43,-69l-84 23z"/>
   </g>
   <g>
    <path class="fil55" d="M11393 11410l639 -15 9 -146 -511 17c-60,6 -132,5 -176,26 -51,116 22,56 39,118z"/>
    <path class="fil55" d="M10893 10981c-35,32 -9,18 -59,29 -1,1 -75,2 -77,2 38,37 7,19 66,36 15,5 43,1 60,0 -43,4 -36,20 -24,47 75,-7 159,-26 227,-13 61,13 107,10 153,-16 -86,-52 -5,-142 -44,-217l-18 -25c-2,-4 -22,-25 -25,-30 12,1 72,9 77,9 51,-5 27,2 60,-25 -187,12 -141,-4 -154,169l-242 34z"/>
    <path class="fil55" d="M12565 11653c-84,-4 -170,-4 -258,-6l45 151 311 6c11,-126 12,-145 -98,-151z"/>
    <polygon class="fil55" points="11633,11596 11645,11591 11649,11451 11546,11455 11457,11449 11452,11608 "/>
   </g>
   <g>
    <path class="fil56" d="M12978 10942c49,67 7,60 32,131 -94,-16 -145,-35 -237,-8 52,24 606,82 663,70l107 -13c-5,-3 -12,-3 -17,-5 -4,-1 -11,-2 -16,-4 -66,-25 -49,21 -49,-181 3,-2 9,-2 12,-3 81,-32 56,-16 73,-56l-199 -30 -4 148 -365 -49z"/>
    <path class="fil56" d="M12971 12025l340 17c2,-64 -9,-84 -24,-144 -307,-38 -187,-9 -268,29 -68,32 -291,-11 -313,-26 -1,0 -38,-35 -38,-36 -44,-24 -119,-16 -174,-15l12 123c117,52 377,3 465,52z"/>
    <path class="fil56" d="M11134 11935c-51,39 -42,30 -130,24 35,36 47,52 85,24 -149,0 -109,-9 -161,37l181 0 486 -16 25 -150 -160 3c-119,19 4,50 -136,67 -57,7 -130,6 -190,11z"/>
    <path class="fil56" d="M12982 11423c137,-30 59,28 298,21 -84,-87 -154,-17 -224,-69l160 5c21,-35 17,7 0,-51l-401 -47c9,81 -3,60 62,93l105 48z"/>
    <path class="fil56" d="M12996 11489l26 136c4,2 10,4 13,5l183 25c-7,-143 -18,-182 -222,-166z"/>
    <path class="fil56" d="M10859 11714c-10,42 35,39 0,78 -2,3 -6,6 -9,8l-95 28 91 14c69,17 136,-2 202,-2l8 -132 -96 -7c-33,3 -71,8 -101,13z"/>
    <path class="fil56" d="M11435 11732c-26,34 -17,19 -21,78l82 -1c53,-3 103,-5 156,-5 10,0 60,-1 67,-2 41,-7 26,2 45,-21l-44 -5 4 -68 -247 -2 0 53c123,9 135,-16 243,12 5,1 11,4 17,6l-293 2 -9 -47z"/>
   </g>
   <g>
    <path class="fil57" d="M12846 13481c11,59 -8,7 30,23 30,12 12,-9 42,20l61 111c73,13 96,14 117,74l41 -5c60,-33 78,-57 139,-76l16 -27 -211 -275c-43,-36 -10,-15 -61,-36 -35,31 -58,56 -92,92 -59,63 -65,46 -82,99z"/>
    <path class="fil57" d="M13144 13752l3 58c4,3 127,152 35,258 0,-33 -5,-9 18,-8 62,-18 42,-34 117,-66 51,-21 98,-24 159,-29 -16,-100 -97,-229 -142,-314l-36 2c-43,35 -107,80 -154,99z"/>
    <path class="fil57" d="M12193 12945c-24,58 -29,41 -26,97 57,50 6,4 75,38l84 36c49,12 72,1 118,35l26 25c2,2 6,7 9,10l104 -138 0 -47c-62,-15 -346,-117 -390,-56z"/>
    <path class="fil57" d="M12608 13110l61 50c63,24 44,10 79,63l31 43c5,6 41,42 42,43 33,42 5,-6 7,33 6,104 -84,-33 15,49 22,-7 14,1 39,-19 12,-9 24,-23 35,-34 29,-30 47,-49 74,-77 -43,-63 -256,-214 -357,-222l-26 71z"/>
   </g>
   <g>
    <path class="fil58" d="M13108 15860c-25,-13 22,-29 -8,6 -1,1 -4,48 -13,17 -1,-3 -5,8 -9,12l-15 -14 -68 83c35,-6 28,-9 48,0 -5,174 -27,238 37,290l-79 -8c24,26 207,100 250,115 23,-13 24,23 17,-21 2,-120 -26,-71 -4,-49l3 -416c-2,-35 1,-38 -12,-63 -27,-54 2,-12 -43,-46 -21,93 -10,31 -31,60l-33 50c-75,5 -19,6 -40,-16z"/>
    <path class="fil58" d="M12922 15041l11 12 63 40c4,2 9,7 14,10 27,-19 9,-10 22,14 26,21 -42,24 58,13l-3 57 32 6c4,3 9,4 11,10 2,8 18,16 21,19 21,14 11,9 29,15 3,4 6,5 8,12l42 33c6,3 14,6 21,10l-17 -309c-152,41 -131,-19 -292,-19 -4,81 22,10 -20,77z"/>
    <path class="fil58" d="M12961 15837c56,0 33,14 47,-44 6,-26 1,-80 -2,-107l-20 -34c0,1 -50,12 -50,13 -5,1 -14,8 -17,3 -3,-5 -11,1 -21,1l-5 19c7,21 15,54 23,73 23,49 39,46 45,76z"/>
    <path class="fil58" d="M13027 15516l69 -15 48 -54 -100 -24c-68,17 -23,-15 -54,23l33 58c1,-2 3,8 4,12z"/>
    <path class="fil58" d="M12991 15636c47,8 29,15 68,51l45 2 -16 -30c-15,-50 -15,-64 -60,-104 -56,11 -38,8 -37,81z"/>
   </g>
   <g>
    <path class="fil59" d="M11086 11082c-68,-13 -152,6 -227,13 -12,-27 -19,-43 24,-47 -17,1 -45,5 -60,0 -59,-17 -28,1 -66,-36 2,0 76,-1 77,-2 50,-11 24,3 59,-29l-103 10c-2,-5 -4,-17 -5,-14 0,2 -3,-11 -4,-15 -1,-3 -3,-10 -4,-14l-6 -102 -351 58c-15,148 -3,168 41,268l584 -75c5,-1 10,-3 14,-4l27 -11z"/>
    <path class="fil59" d="M13240 11852c122,11 244,28 362,34 -13,-67 -27,-97 -67,-149l-518 -57c25,196 14,152 223,172z"/>
    <path class="fil59" d="M10685 11432c-6,78 -12,52 82,46 27,-2 71,-11 103,-15 77,-10 155,-17 232,-22 34,-19 56,-39 88,-56 78,-40 80,-1 111,-74 -63,-44 -436,13 -516,33 -104,26 -49,26 -100,88z"/>
    <path class="fil59" d="M13436 11135c40,23 44,20 102,29 39,6 72,10 115,12 49,-108 55,-107 45,-261l-152 -42c-17,40 8,24 -73,56 -3,1 -9,1 -12,3 0,202 -17,156 49,181 5,2 12,3 16,4 5,2 12,2 17,5l-107 13z"/>
    <polygon class="fil59" points="10525,12088 10734,12066 10776,11906 10482,11938 10421,12099 "/>
    <path class="fil59" d="M13374 12065c77,-19 181,17 266,22 80,-7 31,4 52,-18 -40,-70 8,-171 -355,-161l37 157z"/>
    <path class="fil59" d="M10541 11760l-32 127c21,0 315,-19 324,-39 2,-6 9,-4 13,-6l-91 -14 95 -28c3,-2 7,-5 9,-8 35,-39 -10,-36 0,-78l-318 46z"/>
    <path class="fil59" d="M10605 11631c-16,105 -9,24 13,56 36,-3 176,-11 200,-23 39,-20 21,5 39,-63 7,-26 11,-57 14,-83l-127 13 -93 4 -46 96z"/>
    <polygon class="fil59" points="13279,11664 13522,11685 13459,11536 13233,11510 "/>
    <path class="fil59" d="M10895 12048c104,-22 94,5 200,-23 4,-1 10,-3 14,-5l-181 0c52,-46 12,-37 161,-37 -38,28 -50,12 -85,-24 88,6 79,15 130,-24l-68 2c-3,-4 -6,-10 -8,-12l-35 -36c-34,-14 -153,8 -195,13l-38 157 105 -11z"/>
    <path class="fil59" d="M12982 11423c41,34 385,58 444,62 -24,-146 -64,-143 -210,-156 17,58 21,16 0,51l-160 -5c70,52 140,-18 224,69 -239,7 -161,-51 -298,-21z"/>
    <path class="fil59" d="M11072 11627l10 -75 -3 -58 -147 12 -39 146c64,2 138,-4 179,-25z"/>
   </g>
   <g>
    <path class="fil60" d="M11600 10949l-81 6 155 13 -1 35c-76,5 -36,-13 -78,30 289,-18 587,-22 876,4 -35,-28 -62,-29 -92,-36 15,-53 27,-15 85,-52 -92,0 -169,11 -245,-34l0 -138c-82,-36 -233,-10 -333,-13 49,221 -92,185 -286,185z"/>
    <path class="fil60" d="M11294 11807c-55,35 -77,32 -143,19l29 -187c12,-101 32,-216 144,-154 28,69 -4,262 -30,322zm-192 72c51,2 137,0 187,-7 79,-10 64,-31 75,-111 12,-89 64,-254 -1,-316 -86,-81 -207,0 -227,93 -16,76 -33,263 -34,341z"/>
    <path class="fil60" d="M12906 11664c21,50 31,99 23,166 -64,2 -104,8 -153,-32 4,-85 -25,-224 -25,-248 5,-151 152,-119 155,114zm-165 199l245 12c-2,-87 -20,-211 -32,-296 -20,-139 -47,-158 -189,-174 -68,85 -82,67 -58,215 13,84 18,158 34,243z"/>
    <path class="fil60" d="M11845 11684l-43 281 64 2c-28,-598 452,-449 380,-17 39,20 8,7 61,20 9,-158 -34,-318 -113,-412 -66,-41 -146,-69 -233,-24 -62,33 -81,92 -116,150z"/>
    <path class="fil60" d="M11630 10836c-23,-17 -22,-12 -35,-41 -39,24 -35,-51 -33,51 19,10 -25,27 36,13 47,-11 3,8 32,-23z"/>
   </g>
   <g>
    <path class="fil61" d="M11310 15164l12 12c37,-46 9,-33 68,-35 -8,70 -15,44 -28,60 -52,68 -96,173 -68,271 11,37 45,94 60,117 33,50 54,73 100,98 -5,-74 8,-5 28,-62 18,-50 8,-561 4,-609 -25,0 -34,2 -60,-5 -35,-10 14,25 -65,-30l-302 22 196 15 -4 161 59 -15z"/>
    <path class="fil61" d="M11271 16716c16,21 12,37 87,56 21,-28 12,-4 24,-49 33,-116 -3,-445 -4,-448 -1,-5 -2,-11 -4,-16l-125 -7c19,151 -13,335 22,464z"/>
   </g>
   <g>
    <path class="fil62" d="M11866 11967c-26,42 21,26 -44,24 -17,0 -49,-12 -68,-20l0 9 17 20 577 -8 5 -9 -83 17c-36,-30 -47,46 -24,-50 72,-432 -408,-581 -380,17z"/>
    <path class="fil62" d="M11180 11639l-2 172 116 -4c26,-60 58,-253 30,-322 -112,-62 -132,53 -144,154z"/>
   </g>
   <g>
    <path class="fil63" d="M13170 14203c-28,21 -11,2 -39,38l-181 311c71,43 122,22 194,-9 81,-38 97,-96 242,-76 75,10 201,20 251,59 7,-70 -41,-316 -88,-365l-4 78c-23,-16 0,-7 -39,-16l-152 -4c-102,1 -142,16 -184,-16z"/>
    <path class="fil63" d="M13168 14604l-100 107c17,50 151,26 269,26 105,0 210,2 315,0l3 -129 -9 -47 -7 82 -457 0c-25,-23 -38,39 -14,-39z"/>
    <path class="fil63" d="M12345 14535c-25,78 -10,16 11,40l310 0c4,0 45,2 45,2 6,-1 21,-2 25,-3l22 -6c3,-80 10,-23 -15,-83 -153,-92 -317,-57 -398,50z"/>
   </g>
   <g>
    <path class="fil64" d="M11008 16094c13,28 -39,22 38,26 -120,-313 -196,-645 149,-870l115 -86 -59 15 4 -161 -196 -15 302 -22 462 -17c3,18 25,27 -17,56l122 -60 -966 1 -102 33c-22,3 -65,3 -89,2l168 12c10,94 4,190 4,284 1,141 -4,149 -29,264 -41,190 40,396 12,507 76,7 34,-11 82,31z"/>
    <path class="fil64" d="M10955 16477c15,50 13,36 54,78 29,30 39,40 70,67 52,47 91,90 167,122l25 -28c-35,-129 -3,-313 -22,-464l-54 10c34,-5 79,-3 113,-9l97 -42c-129,6 -413,-14 -498,0l-48 11c91,62 75,-59 96,255z"/>
   </g>
   <g>
    <path class="fil65" d="M12484 13879c-1,-46 11,0 18,0 0,0 2,1 2,1 36,9 -19,60 -20,-1zm-87 32l-6 52 40 -3c81,-16 148,5 219,39 77,38 92,71 117,177 30,127 58,369 61,498 5,-3 12,-13 15,-9 2,3 10,-7 13,-9 3,-3 17,-14 22,-18 17,-103 54,-94 19,-214 -20,-67 -35,-103 -53,-179l-34 -44 53 -46c42,-29 -33,-19 49,-25l24 78c35,-22 27,11 19,-73l-62 -212 44 -6c14,-10 -3,-4 36,-22 7,-4 31,-11 40,-14 27,-8 44,-12 63,-17l19 -34 -37 -1 -31 6c-42,25 54,21 -58,24l-37 -83 88 -52 5 -32 -45 -2c-108,59 -157,74 -298,97 -128,21 -238,17 -285,124z"/>
    <path class="fil65" d="M12999 17063c8,26 14,20 -12,20l1 49 -133 2c-9,17 -21,-6 -1,44 33,5 11,0 46,16 9,4 29,16 44,23l-8 107c-21,79 -19,37 11,49l94 -70 117 88c2,-90 -50,-132 -8,-160 44,-74 47,-29 88,-96 -25,-1 -67,0 -89,-3 -5,0 -10,-1 -14,-2 -3,-1 -9,-3 -12,-4l-19 -8c-26,-23 -14,-1 -30,-42 -14,-37 -4,-16 -5,-44 -7,-4 -35,-18 -40,-23 -17,84 -6,34 -30,54z"/>
    <path class="fil65" d="M10050 14727l-10 56c-74,33 -144,-9 -142,41l99 67 -27 110c3,53 -19,19 28,37 29,-37 40,-48 87,-73l86 69c40,-13 37,28 26,-38l-27 -100c55,-54 74,-39 110,-106 -178,-2 -114,1 -141,-26 -15,-14 -4,13 -18,-27 -11,-34 -6,-17 -9,-53l-52 -16 -10 59z"/>
    <path class="fil65" d="M10116 13878c-18,61 -14,22 19,34l84 -70 90 72c33,0 26,9 30,-19l-30 -118c51,-52 77,-45 107,-104 -172,0 -113,3 -146,-35 -40,-58 -2,-107 -70,-99 1,52 -10,72 -30,133l-141 1c26,58 56,56 106,103l-19 102z"/>
    <path class="fil65" d="M10991 17116c-23,17 11,3 -33,13 -51,12 29,-2 -29,5 -27,3 -62,1 -94,4 33,23 13,5 26,39 33,6 8,-1 44,16 13,6 24,14 45,23l-19 123c-2,61 -7,24 22,34l93 -69c45,27 51,41 88,64l33 10 -8 -35 -27 -103c40,-41 45,-58 101,-65 -2,-66 49,-30 -62,-44 -18,-3 -57,3 -73,4 -34,-42 -27,-52 -31,-95l9 -12 -32 -20c-24,60 -18,69 -53,108z"/>
    <path class="fil65" d="M10195 16579c-20,23 37,10 -58,21 -13,1 -56,0 -73,0 50,109 85,9 104,155 -48,109 -22,57 16,72 31,-32 37,-43 93,-54 23,27 9,2 14,33l43 19c53,-26 17,15 21,-34 0,-2 -12,-58 -12,-59 14,-65 50,-83 100,-91 -5,-45 11,-18 -14,-42 -20,0 -50,2 -68,-1 -48,-9 -24,2 -51,-24l-53 -121c-25,36 -34,98 -62,126z"/>
    <path class="fil65" d="M9863 15751c-8,65 2,19 -36,40 -58,8 -72,-8 -120,22l85 48c25,27 14,0 25,39 19,68 5,20 -9,38l-13 55c0,62 -7,25 22,37l96 -61c41,27 16,12 24,31 31,12 36,13 61,25l8 -38 9 -9c-22,-32 -15,43 -27,-53 -9,-69 -8,-13 14,-36 42,-38 45,-49 97,-58 -14,-76 -13,-20 -82,-37 -62,-14 -58,26 -73,-54 -8,-17 -10,-31 -19,-48 -32,-57 -10,-27 -30,-33 -7,47 3,12 -10,54 -11,36 -13,24 -22,38z"/>
   </g>
   <g>
    <path class="fil66" d="M12458 11942l-1 41 -80 2 -24 -2 -4 -138c72,-12 37,-22 98,11l11 86zm-151 -295c88,2 174,2 258,6 110,6 109,25 98,151l-311 -6 -45 -151zm183 -54c-44,-7 -40,-48 -36,-150l186 10 5 155c-47,4 -130,12 -155,-15zm-1097 -183c4,5 13,2 17,11 14,29 107,12 136,34l103 -4 -4 140c20,34 -7,7 46,17l13 -152c106,-26 583,-29 687,-3 43,21 38,102 38,150 -74,9 -118,27 -155,-33l-53 -40c2,37 10,27 -27,28 79,94 122,254 113,412 -53,-13 -22,0 -61,-20 -23,96 -12,20 24,50l83 -17 -5 9c86,11 562,47 623,33 -88,-49 -348,0 -465,-52l-12 -123c55,-1 130,-9 174,15 0,1 37,36 38,36 8,-90 -23,-45 35,-38 -16,-85 -21,-159 -34,-243 -24,-148 -10,-130 58,-215 -69,17 -53,46 -30,-25 -121,47 -502,32 -648,10l-3 -139 306 4c-25,-18 -7,-12 -50,-24 -86,-24 -213,5 -276,5l-104 -10c-63,-5 -142,-1 -206,-1 -89,0 -159,-6 -224,41l511 -17 -9 146 -639 15z"/>
    <path class="fil66" d="M11764 11781c-19,23 -4,14 -45,21 -7,1 -57,2 -67,2 -53,0 -103,2 -156,5 -39,19 -34,-36 -36,48l160 -3 -25 150 176 -4 -17 -20 -98 9 8 -120c50,-53 46,-35 90,-31 28,53 12,63 0,133 19,8 51,20 68,20 65,2 18,18 44,-24l-64 -2 43 -281 -40 -63 -156 4c-56,16 -16,-9 -50,30l211 -2 -46 128z"/>
   </g>
   <g>
    <path class="fil67" d="M11289 10778c-33,27 -9,20 -60,25 -5,0 -65,-8 -77,-9 3,5 23,26 25,30l18 25c39,75 -42,165 44,217 75,20 619,-17 756,-18 167,0 667,37 778,17 92,-27 143,-8 237,8 -25,-71 17,-64 -32,-131 -8,-190 21,-157 -192,-168l52 51 -116 4 5 215 -256 -7c-289,-26 -587,-22 -876,-4l-199 5c27,-57 81,-95 83,-93l121 4c194,0 335,36 286,-185 100,3 251,-23 333,13l0 138 32 0 -9 -160 -363 -8c-30,159 109,176 -372,174l-3 -152 -215 9z"/>
    <path class="fil67" d="M12735 11380c44,-39 44,-14 29,-97l-374 -28 -306 -4 3 139c146,22 527,37 648,-10z"/>
    <path class="fil67" d="M11691 11608c267,-23 104,-39 260,-116 104,-51 210,-13 270,38l53 40c68,40 65,29 146,30l-29 -147c-104,-26 -581,-23 -687,3l-13 152z"/>
    <path class="fil67" d="M11435 11732l9 47 293 -2c-6,-2 -12,-5 -17,-6 -108,-28 -120,-3 -243,-12l0 -53 247 2 -4 68 44 5 46 -128 -211 2 -166 13 2 64z"/>
    <polygon class="fil67" points="12490,11593 12630,11597 12629,11460 12461,11453 "/>
    <path class="fil67" d="M11754 11980c-11,-53 -1,-24 -5,-66l-7 -46c0,-4 -3,-9 -5,-14l-73 15 -8 120 98 -9z"/>
    <path class="fil67" d="M12377 11985l80 -2 1 -41c-3,-5 -7,-17 -8,-15 -1,3 -6,-11 -7,-14 -36,-68 -7,-41 -53,-59 -41,48 -24,-55 -29,59 -2,27 9,47 16,72z"/>
   </g>
   <g>
    <path class="fil68" d="M12744 15536c65,18 68,12 70,80 -85,-28 -42,-41 -70,-80zm91 -295l34 47c2,4 11,23 13,28l129 -56c2,64 1,116 -70,136l0 15 -34 53c-65,-27 -21,-5 -63,-43 -6,-5 -24,-27 -27,-28 -67,-27 -32,71 -75,17 -4,-5 -13,7 -21,10l8 -46c-11,-117 -57,-83 40,-216 16,12 8,0 24,23 24,32 11,40 42,60zm-151 -111l-38 9c-51,21 -32,52 -129,70 26,-37 19,5 -6,-50l-17 -16c-20,21 -20,-32 -15,28 -20,20 45,16 -54,17l17 6c0,37 10,27 37,40 21,9 12,-5 28,23l-99 35c-22,-27 -2,-9 -6,-51l-24 -5c18,44 18,37 35,81l-69 -21c17,43 37,48 55,70l-77 -4 2 16c61,3 70,15 102,50l51 -24 112 7 -5 -21 -9 -3 -31 -129c65,15 111,29 142,73 11,14 11,9 24,37 10,20 1,-2 7,33 -45,-17 -25,-4 -55,-41l4 -17c-62,11 -26,-24 -49,20 18,15 10,9 35,15 1,0 39,10 48,17 -47,117 -60,16 -83,85l8 132c-16,31 -6,4 -43,17 -27,12 4,-21 -38,24 -20,21 -18,29 -22,37 13,64 -6,16 -62,27l-34 4c-4,0 -11,0 -16,2 27,59 -19,26 56,51 24,80 10,0 -25,27l-40 42 31 21c40,-88 19,-21 113,-32 -1,-12 -11,-74 -11,-76 0,-50 -8,-40 32,-74 41,-33 2,-27 49,-19 74,-13 33,-10 42,-28 25,-41 -65,-33 60,-33 -1,6 -7,44 -6,49l6 54c1,-158 -4,-37 35,-86 106,0 8,-5 47,29l16 41 47 -15c9,-36 9,-52 42,-73 111,-72 57,-22 30,-85 -7,-54 -7,-1 31,-21l24 -12c-3,-3 -8,-5 -10,-6 -2,-1 -8,-4 -10,-5l-45 -25c2,-1 57,-30 57,-30l46 1c4,-5 12,3 17,5l100 24 -48 54c-2,1 -38,21 -39,22 -21,18 -15,13 -29,32 45,40 45,54 60,104l38 25c-21,12 22,52 -67,3 -39,-36 -21,-43 -68,-51l-18 -14c40,-3 4,-7 13,30l20 34c45,35 18,73 20,145 116,-56 73,-49 130,-81 35,-20 20,-13 62,-27l-8 0c-91,-64 48,2 -25,-8l-24 -1c-2,-1 -9,0 -13,-1 0,-28 6,-29 14,-58 8,-28 10,-44 15,-75l74 -17 -14 6c-42,-28 -32,-39 -59,-88 7,-14 19,-31 31,-45l25 -6c-20,-9 56,-27 -68,-7l35 -40 -51 -5 -52 -77c-41,-42 -40,4 -59,-61 33,-13 6,-7 35,-9 5,-1 22,8 25,2 2,-4 9,2 13,3l7 -43 -32 -6c-17,-31 -29,43 -12,-45 -48,39 -37,41 -98,45l55 -70c-13,-24 5,-33 -22,-14 -23,44 10,13 -44,60l-44 -62c-28,44 -22,21 -46,30 -31,11 -19,8 -54,23 -7,-7 -23,-31 -29,-39 -28,-38 11,-8 -28,-31l-34 66c-35,-31 7,-6 -47,-20z"/>
    <path class="fil68" d="M12332 15565l-39 20c3,1 8,2 10,3l64 32 -44 17c53,23 34,-33 66,21 68,24 6,27 71,-4 35,-23 29,-54 76,-96 -15,-23 -6,-27 -45,-46 -45,-43 -10,-17 -50,-22l-57 -26c-16,48 3,11 -21,61l-31 40z"/>
   </g>
   <g>
    <path class="fil69" d="M12345 14535c-72,38 -256,265 -281,375 143,2 611,31 704,-17 115,-59 324,-265 376,-350 -72,31 -123,52 -194,9 -78,129 -2,214 -112,249 -46,-40 -24,0 -42,-74 -16,-66 -3,-197 -53,-242 25,60 18,3 15,83l-22 6c-4,1 -19,2 -25,3 0,0 -41,-2 -45,-2l-310 0c-21,-24 -36,38 -11,-40z"/>
    <path class="fil69" d="M13068 14711l-83 87c18,27 -26,22 42,21 150,0 524,33 639,-24l-11 -187 -3 129c-105,2 -210,0 -315,0 -118,0 -252,24 -269,-26z"/>
   </g>
   <g>
    <path class="fil70" d="M14461 13372c55,-34 104,-81 148,-131 -22,-56 -405,-531 -470,-613 -141,-177 -71,-160 -343,-207 -165,-29 -341,-53 -511,-65 47,41 61,40 129,41 -75,30 -140,8 -228,4l217 81c4,2 8,4 12,6l51 35c43,27 47,25 92,46l462 296c56,37 49,65 140,135 3,3 7,5 10,7 127,96 112,82 200,200 67,91 51,91 120,112l-29 53z"/>
    <path class="fil70" d="M9730 13468c31,-54 58,-64 125,-147l119 -123c2,-2 6,-6 9,-8 153,-129 30,-113 125,-119 -37,-70 -196,-230 -264,-264 -45,33 -317,378 -341,434 41,44 69,75 109,112l118 115z"/>
   </g>
   <g>
    <path class="fil71" d="M11444 16054c31,25 15,31 57,55l68 39c-12,52 -11,41 -75,51 -31,6 -59,8 -89,12l-97 42c-34,6 -79,4 -113,9l54 -10 125 7c2,5 3,11 4,16 1,3 37,332 4,448 -12,45 -3,21 -24,49 -75,-19 -71,-35 -87,-56l-25 28c5,7 -10,-5 21,21l420 190c50,-55 -73,-40 90,-43 3,-78 16,-868 -11,-931l-61 -79c-13,57 47,31 -133,70 -47,10 -94,23 -138,37l-183 70c-23,14 -20,13 -33,24l-20 19c138,5 141,13 177,-36l69 -32z"/>
    <path class="fil71" d="M11454 15687l32 45c17,17 36,33 54,50 49,46 72,60 128,93 -41,-76 -13,-18 0,-36 69,22 -3,26 69,-20 -39,-147 -145,-270 -148,-458 -4,-241 195,-300 217,-341 42,-29 20,-38 17,-56l-462 17c79,55 30,20 65,30 26,7 35,5 60,5 4,48 14,559 -4,609 -20,57 -33,-12 -28,62z"/>
   </g>
   <g>
    <path class="fil72" d="M13150 17231c-42,28 10,70 8,160l-117 -88 -94 70 -6 23c-27,51 -74,71 -144,100 -4,1 -8,3 -13,5 -83,31 -166,22 -298,63 -109,34 -111,-11 -153,31 -59,-26 -25,4 -46,-67 0,106 7,23 -33,46l-32 6c-38,15 -55,37 -90,57l19 71 27 49c5,0 12,2 16,3l62 14c129,23 537,-75 651,-137 73,-41 97,-16 219,-28 166,-99 342,-188 511,-277 78,-42 150,-80 241,-138 67,-43 190,-88 211,-169 -30,-8 6,13 -38,-20 -53,-39 -115,-135 -192,-175l-6 40c-37,-21 -49,-17 -69,-45 -11,55 -63,108 -106,152l-31 27c-3,3 -8,5 -11,7 -112,69 -58,49 -176,130 -106,73 -37,-5 -128,92l-47 41c-106,71 -41,72 -86,4 -31,-48 23,-26 -49,-47z"/>
    <path class="fil72" d="M11914 17749c2,-5 6,-14 8,-18 2,-3 6,-9 8,-12 3,-4 7,-10 11,-15l20 -67c-16,-9 -34,-22 -43,-27 -35,-20 -9,-11 -43,-19l-289 -28c-4,-1 -8,-3 -12,-4 -42,-9 -21,0 -46,-4l-342 -122c-4,-3 -8,-5 -11,-8l-41 -22 0 -35c-37,-23 -43,-37 -88,-64l-93 69c-36,27 45,22 -48,22l26 -56 19 -123c-21,-9 -32,-17 -45,-23 -36,-17 -11,-10 -44,-16 -44,26 -36,-11 -36,34 -59,-50 -14,-16 -47,-21l-202 -132c-109,-92 -74,-81 -164,-145 -3,-3 -7,-6 -10,-8l-50 -48c-2,-2 -3,-6 -4,-7 -1,-2 -5,-5 -6,-11 -1,-7 -5,-9 -8,-14l-43 -19c67,102 22,23 0,46 -10,-6 -52,-53 -109,56 56,63 73,137 141,182l164 119c2,2 5,5 6,6 107,104 47,52 183,142 97,64 -57,-35 21,14l67 49c84,80 55,19 160,84l58 31c96,41 133,76 225,100 195,51 412,151 615,132 8,-1 10,-1 18,-2l74 -16z"/>
    <path class="fil72" d="M13858 16693c30,59 73,95 133,132 11,-65 52,39 117,-73 15,-27 23,-52 40,-81 24,-42 28,-49 49,-90l88 -153c159,-312 115,-326 177,-440 25,-46 7,5 22,-47l56 -275c3,-52 -3,-62 -3,-103 0,-79 9,-64 46,-70 -31,-118 -152,-466 -222,-542 -21,145 37,631 -46,885l-14 37c-1,5 -3,9 -4,13 -7,21 -10,32 -16,52l-133 353c-1,4 -4,8 -5,12l-57 120c-31,67 -33,52 -64,83l-83 147c-63,78 -13,48 -81,40z"/>
    <path class="fil72" d="M9710 15060c-33,28 -18,-43 -24,31l-145 356c-2,75 32,82 43,141 19,106 -21,37 30,192 5,16 7,25 11,42l51 224c42,7 27,-29 79,-13 -63,161 48,291 161,510l24 45c2,4 4,8 6,12 2,3 4,8 6,11l44 64c2,3 6,6 9,8l24 23c30,35 23,54 61,87 -42,-78 30,-39 53,-44l25 6c-19,-146 -54,-46 -104,-155 17,0 60,1 73,0 95,-11 38,2 58,-21l-8 -98c-5,16 -13,144 -101,-22 -5,-10 -10,-19 -18,-35l-56 -94c-2,-3 -6,-6 -8,-9 -29,-40 -97,-184 -94,-238 2,-27 4,-21 9,-36 46,-149 24,46 18,-47 -8,-19 17,-4 -24,-31l-96 61c-26,32 42,21 -51,28l29 -65 13 -55 -16 -77 -85 -48c48,-30 62,-14 120,-22l5 -51c-50,-29 37,-13 -35,-1 -4,0 -11,2 -15,3 -3,1 -10,3 -16,3 0,-210 -31,-394 -14,-677l-11 51c-34,-35 -14,4 -31,-59z"/>
   </g>
   <g>
    <path class="fil73" d="M9998 15038c18,3 12,-24 27,19 17,47 -77,59 -98,62 0,817 40,345 72,618l99 20c-66,0 -110,-1 -154,-17 15,80 11,40 73,54 69,17 68,-39 82,37 48,16 37,-1 37,47 -20,7 -93,-22 4,183 24,50 21,48 38,97 56,164 3,-50 98,179 2,5 9,19 11,24l40 64c83,138 64,72 147,125 -37,5 -108,15 -164,24 27,26 3,15 51,24 18,3 48,1 68,1 25,24 9,-3 14,42 71,-17 8,40 64,-53 3,-5 3,-13 6,-19 -3,82 -22,76 2,108l14 13c2,2 6,5 8,8l192 189c90,76 115,106 191,138 48,21 56,22 77,76 -205,0 -135,0 -162,37 32,-3 67,-1 94,-4 58,-7 -22,7 29,-5 44,-10 10,4 33,-13l37 -136c47,21 19,-13 48,48l-9 12 31 95c16,-1 55,-7 73,-4 111,14 60,-22 62,44l37 34c69,63 52,24 158,67l49 21c73,24 230,30 283,44l24 10c171,59 175,-36 240,46l44 29c3,3 7,9 9,11 3,3 6,8 9,12l-12 -72c106,-24 127,17 252,-27 83,-29 61,-10 148,-20l202 -43c5,-2 18,-9 23,-11l148 -28 -41 -60 48 -10c-20,-50 -8,-27 1,-44l133 -2 -1 -49c1,-63 8,-41 23,-120l-128 97c-3,2 -8,5 -11,7 -85,47 -100,22 -176,52 -226,90 -162,33 -279,66 -38,10 -69,48 -77,50l-512 0c-176,-75 109,76 -40,-28 -56,-39 47,-6 -133,-31l-170 -41c-76,-31 -275,-79 -338,-131l-15 -16c-1,-2 -4,-6 -5,-7l-92 -55c-5,-2 -19,-9 -23,-11l-21 -12c-1,0 -26,-18 -31,-20l-158 -119c-3,-3 -7,-6 -9,-8l-272 -299c-2,-3 -5,-7 -8,-10 -2,-3 -5,-7 -7,-11 -87,-132 19,-17 -65,-104 -57,-60 -38,-46 -81,-130 -2,-4 -4,-8 -6,-11l-61 -146c-46,-88 -43,-162 -54,-188 -41,-94 54,77 -20,-28 -53,-75 -43,-123 -58,-261l-1 -365c-1,-76 14,-62 -23,-84l64 -56 -29 -29 -86 -69c-47,25 -58,36 -87,73z"/>
    <path class="fil73" d="M13071 16994l-2 38c1,28 -9,7 5,44 16,41 4,19 30,42 22,-80 116,4 206,-60l306 -280c71,-61 81,-42 89,-103l-80 -91c-64,-4 -44,-3 -91,42l-316 284c-52,27 -110,56 -147,84z"/>
   </g>
   <g>
    <path class="fil74" d="M10439 13273c21,56 91,106 135,150 46,45 97,110 147,140 95,-74 377,-641 1118,-724 418,-46 783,30 1106,259 104,74 170,155 250,216 30,-58 -2,-25 59,-15l265 175c39,24 2,0 19,12l59 66c84,119 94,64 192,203 67,95 74,3 125,139 36,95 116,118 158,238 10,28 20,72 29,89 40,77 32,3 41,92 -24,-32 -12,-32 -7,-82l41 44c-5,-122 25,-364 17,-430l-171 -258c-42,-36 -21,-30 -59,-76l-51 -53c-20,-18 -11,-10 -30,-25 -4,-3 -16,-11 -21,-14 -2,-2 -7,-4 -9,-7l-76 -73c-68,-92 -5,-36 -189,-146l-144 -115c-32,-18 -39,-13 -63,-24l-20 -12c-2,-2 -6,-5 -9,-7l-30 -23c-3,-2 -7,-5 -11,-7l-91 -49c-49,-22 -73,-16 -121,-34 -54,-22 -31,-37 -111,-65 -30,-10 -98,-27 -129,-39l-139 -38c-61,-12 -73,-13 -137,-20 -79,-10 -63,-27 -139,-35 -197,-21 -634,-41 -805,14 -73,23 -453,79 -535,141 -54,42 20,12 -88,43 -74,21 -50,24 -108,50 -91,43 -119,38 -228,140 -57,52 -157,61 -198,145 30,-26 -2,-20 -35,-34 -23,33 -61,-46 -7,49z"/>
    <path class="fil74" d="M11820 18077c46,-41 42,-3 -38,-66 147,2 381,47 522,0l2 13c0,1 1,6 1,8l8 17c1,2 4,7 7,10 52,-13 308,-183 397,-234 81,-45 322,-188 407,-216 -122,12 -146,-13 -219,28 -114,62 -522,160 -651,137l-62 -14c-4,-1 -11,-3 -16,-3 8,81 2,30 -11,46 -75,-28 -4,4 -39,-34l-79 -59 -81 61c-30,34 33,13 -42,33 -3,-2 -7,-10 -8,-8 0,2 -4,-9 -5,-11 -5,-58 -3,57 1,-36l-74 16c-8,1 -10,1 -18,2 -203,19 -420,-81 -615,-132 -92,-24 -129,-59 -225,-100l-58 -31c-105,-65 -76,-4 -160,-84l-67 -49c-78,-49 76,50 -21,-14 -136,-90 -76,-38 -183,-142 -1,-1 -4,-4 -6,-6l-164 -119c-68,-45 -85,-119 -141,-182 57,-109 99,-62 109,-56 22,-23 67,56 0,-46 -5,-31 9,-6 -14,-33 -56,11 -62,22 -93,54 -4,3 -8,9 -11,11l-61 22 31 -111c-23,5 -95,-34 -53,44 -38,-33 -31,-52 -61,-87l-24 -23c-3,-2 -7,-5 -9,-8l-44 -64c-2,-3 -4,-8 -6,-11 -2,-4 -4,-8 -6,-12l-24 -45c-113,-219 -224,-349 -161,-510 -52,-16 -37,20 -79,13l-51 -224c-4,-17 -6,-26 -11,-42 -51,-155 -11,-86 -30,-192 -11,-59 -45,-66 -43,-141 -58,260 -264,719 -63,1072 257,450 1045,851 1524,1092l818 466z"/>
    <path class="fil74" d="M13991 16825c11,68 108,92 120,155l51 24c36,-25 8,7 18,-24 19,-57 38,-30 -22,-60 81,-20 15,15 54,-48l409 -819c7,-53 16,-89 19,-150 -1,5 -3,156 50,205 -8,-67 -22,-93 1,-179 8,-78 -66,-372 -108,-436 -37,6 -46,-9 -46,70 0,41 6,51 3,103l-56 275c-15,52 3,1 -22,47 -62,114 -18,128 -177,440l-88 153c-21,41 -25,48 -49,90 -17,29 -25,54 -40,81 -65,112 -106,8 -117,73z"/>
    <path class="fil74" d="M10200 13539c68,-8 30,41 70,99 251,0 144,-18 148,-41 22,-116 -36,65 5,-33 15,-36 5,-14 20,-30l65 -47c3,-2 8,-6 12,-8 -25,-42 -44,-57 -80,-94 -14,-14 -29,-32 -43,-43 -39,-32 -13,-19 -48,-26 -107,-38 -20,-18 -55,26 4,3 25,19 27,20 27,18 19,20 5,0 -6,13 -22,39 -25,42 -2,2 -6,6 -9,8 -23,21 -98,47 -92,127z"/>
   </g>
   <g>
    <path class="fil75" d="M10301 13135c10,27 -2,6 23,39 10,11 21,22 33,35 41,40 33,39 82,64 -54,-95 -16,-16 7,-49 33,14 65,8 35,34 41,-84 141,-93 198,-145 109,-102 137,-97 228,-140 58,-26 34,-29 108,-50 108,-31 34,-1 88,-43 82,-62 462,-118 535,-141 171,-55 608,-35 805,-14 76,8 60,25 139,35 64,7 76,8 137,20l139 38c31,12 99,29 129,39 80,28 57,43 111,65 48,18 72,12 121,34l91 49c4,2 8,5 11,7l30 23c3,2 7,5 9,7l20 12c24,11 31,6 63,24l144 115c184,110 121,54 189,146l76 73c2,3 7,5 9,7 5,3 17,11 21,14 19,15 10,7 30,25l51 53c38,46 17,40 59,76l171 258 119 -274c31,-107 15,-17 -29,-54 -18,43 1,25 -10,17l-161 -189c-2,-2 -6,-6 -8,-8 -104,-122 -158,-141 -238,-213 -2,-3 -6,-6 -8,-8l-121 -106c-2,-2 -6,-5 -10,-7l-64 -41c-71,-39 -52,-10 -104,-62 -66,-67 -44,-41 -114,-68 -77,-29 -27,-34 -124,-66 -40,-14 -28,-7 -62,-22 -5,-2 -52,-23 -59,-27 -340,-165 -101,-49 -331,-119 -4,-1 -8,-3 -12,-4 -216,-76 -238,-40 -327,-69l-24 -10c-98,-32 -94,6 -194,-29 -113,-41 -425,-25 -497,0 -91,32 -66,-8 -189,34 -67,23 -152,9 -410,88 -42,13 -84,16 -136,38 -4,2 -8,4 -12,6l-57 30c-92,48 -80,27 -148,57l-505 292c-3,2 -8,5 -11,7 -73,58 -53,56 -46,97z"/>
    <path class="fil75" d="M14180 16980c123,-54 337,-280 413,-395 53,-80 105,-169 117,-277 12,-106 25,-297 -19,-379 -23,86 -9,112 -1,179 -53,-49 -51,-200 -50,-205 -3,61 -12,97 -19,150l-409 819c-39,63 27,28 -54,48 60,30 41,3 22,60z"/>
    <path class="fil75" d="M9730 13468c5,27 -1,10 16,43 8,16 17,27 26,41 32,47 30,51 72,88l-17 -71c93,17 20,-34 209,-186l20 -16c2,-2 6,-6 8,-9l31 -38c30,-34 56,-63 93,-87 -18,-31 -5,-7 -21,-57 -31,-96 -58,27 -8,-50 -29,-61 4,-33 -51,-55 -95,6 28,-10 -125,119 -3,2 -7,6 -9,8l-119 123c-67,83 -94,93 -125,147z"/>
    <path class="fil75" d="M11820 18077l244 197 258 -215c-3,-3 -6,-8 -7,-10l-8 -17c0,-2 -1,-7 -1,-8l-2 -13c-141,47 -375,2 -522,0 80,63 84,25 38,66z"/>
   </g>
   <g>
    <path class="fil76" d="M10139 14764c27,27 -37,24 141,26 -36,67 -55,52 -110,106l27 100c38,30 13,-38 39,40l-36 27 -64 56c37,22 22,8 23,84l1 365c15,138 5,186 58,261 74,105 -21,-66 20,28 11,26 8,100 54,188l61 146c2,3 4,7 6,11 43,84 24,70 81,130 84,87 -22,-28 65,104 2,4 5,8 7,11 3,3 6,7 8,10l272 299c2,2 6,5 9,8l158 119c5,2 30,20 31,20l21 12c4,2 18,9 23,11l92 55c1,1 4,5 5,7l15 16c63,52 262,100 338,131l170 41c180,25 77,-8 133,31 149,104 -136,-47 40,28l512 0c8,-2 39,-40 77,-50 117,-33 53,24 279,-66 76,-30 91,-5 176,-52 3,-2 8,-5 11,-7l128 -97c-15,79 -22,57 -23,120 26,0 20,6 12,-20l19 -78c55,2 7,-6 53,9 37,-28 95,-57 147,-84l316 -284c47,-45 27,-46 91,-42l-237 -231c-40,41 -60,77 -100,131 -207,274 -537,494 -895,565 -534,108 -977,-42 -1305,-298 -261,-204 -508,-571 -632,-1021 -107,-391 -154,-1095 -13,-1472 -108,-58 -103,48 -113,77 -14,40 -13,31 -33,67 -55,96 -43,112 -77,202 -35,90 -59,45 -39,136l-42 24z"/>
    <path class="fil76" d="M13676 14250c118,518 121,1095 -60,1615 -55,158 -125,262 -181,409 23,42 117,142 165,163 135,79 132,-71 223,-194 21,-28 44,-36 60,-78l27 -130c28,-73 44,-33 63,-126 22,-117 97,-551 91,-670 -5,-116 -24,-44 -34,-154 -13,-162 -21,-205 -68,-348 -52,-159 31,-60 -133,-349l-88 -172 -65 34z"/>
   </g>
   <g>
    <path class="fil77" d="M13676 14250l65 -34 88 172c164,289 81,190 133,349 47,143 55,186 68,348 10,110 29,38 34,154 6,119 -69,553 -91,670 -19,93 -35,53 -63,126l-27 130c-16,42 -39,50 -60,78 -91,123 -88,273 -223,194 31,52 199,230 258,256 68,8 18,38 81,-40l83 -147c31,-31 33,-16 64,-83l57 -120c1,-4 4,-8 5,-12l133 -353c6,-20 9,-31 16,-52 1,-4 3,-8 4,-13l14 -37c83,-254 25,-740 46,-885 -4,-70 -79,-237 -106,-323 -35,-112 -60,-232 -79,-353l-41 -44c-5,50 -17,50 7,82 -9,-89 -1,-15 -41,-92 -9,-17 -19,-61 -29,-89 -42,-120 -122,-143 -158,-238 -51,-136 -58,-44 -125,-139 -98,-139 -108,-84 -192,-203l-59 -66c-17,-12 20,12 -19,-12l-265 -175c-61,-10 -29,-43 -59,15 51,74 106,128 157,205 44,66 93,144 135,226 82,164 140,319 189,505z"/>
    <path class="fil77" d="M10270 13638c33,38 -26,35 146,35 -30,59 -56,52 -107,104l30 118c25,30 16,-39 22,38 -101,13 -18,8 -52,-19l-90 -72 -84 70c-37,38 48,38 -33,28 -22,-27 -21,33 -15,-59l-40 34c-1,-5 -3,-11 -5,-16l-9 -38c-39,13 -41,18 -72,36l-25 18c-12,104 10,229 3,343 -7,93 -31,188 -56,284 -26,95 -173,458 -173,518 17,63 -3,24 31,59l11 -51c-17,283 14,467 14,677 6,0 13,-2 16,-3 4,-1 11,-3 15,-3 72,-12 -15,-28 35,1l-5 51c38,-21 28,25 36,-40 5,-41 -5,-16 9,-52 23,-62 7,-17 23,-40 20,6 -2,-24 30,33 9,17 11,31 19,48 44,16 88,17 154,17l-99 -20c-32,-273 -72,199 -72,-618 21,-3 115,-15 98,-62 -15,-43 -9,-16 -27,-19l-66 27 38 -64 27 -110 -99 -67c-27,-36 -50,45 -19,-43l137 0c2,-5 14,-24 16,-27l18 -27 10 -59c16,-30 -3,-14 27,-29l25 45c3,36 -2,19 9,53 14,40 3,13 18,27l42 -24c-20,-91 4,-46 39,-136 34,-90 22,-106 77,-202 20,-36 19,-27 33,-67 10,-29 5,-135 113,-77 19,-117 67,-244 108,-344 39,-95 116,-211 121,-298l-152 -137c-4,2 -9,6 -12,8l-65 47c-15,16 -5,-6 -20,30 -41,98 17,-83 -5,33 -4,23 103,41 -148,41z"/>
    <path class="fil77" d="M11159 17343c31,27 13,-32 28,34 -19,34 26,23 -53,26l41 22c3,3 7,5 11,8l342 122c25,4 4,-5 46,4 4,1 8,3 12,4l289 28 -4 -11c-26,-23 -22,-11 -31,-45l158 -10 26 -128c-65,-82 -69,13 -240,-46l-24 -10c-53,-14 -210,-20 -283,-44l-49 -21c-106,-43 -89,-4 -158,-67l-37 -34c-56,7 -61,24 -101,65l27 103z"/>
    <path class="fil77" d="M12086 17449l10 76 140 9 18 40c40,-23 33,60 33,-46 21,71 -13,41 46,67 42,-42 44,3 153,-31 132,-41 215,-32 298,-63 5,-2 9,-4 13,-5 70,-29 117,-49 144,-100 -4,-3 -97,-7 -5,-72l8 -107c-15,-7 -35,-19 -44,-23 -35,-16 -13,-11 -46,-16l-48 10 41 60 -148 28c-5,2 -18,9 -23,11l-202 43c-87,10 -65,-9 -148,20 -125,44 -146,3 -252,27l12 72z"/>
    <path class="fil77" d="M10002 15889l13 89 -9 9c42,39 21,4 36,70 -78,-13 -25,3 -44,-32 -25,-12 -30,-13 -61,-25 6,93 28,-102 -18,47 -5,15 -7,9 -9,36 -3,54 65,198 94,238 2,3 6,6 8,9l56 94c8,16 13,25 18,35 88,166 96,38 101,22l8 98c28,-28 37,-90 62,-126l53 121c56,-9 127,-19 164,-24 -83,-53 -64,13 -147,-125l-40 -64c-2,-5 -9,-19 -11,-24 -95,-229 -42,-15 -98,-179 -17,-49 -14,-47 -38,-97 -97,-205 -24,-176 -4,-183 0,-48 11,-31 -37,-47 -52,9 -55,20 -97,58z"/>
    <path class="fil77" d="M10443 16641c-50,8 -86,26 -100,91l33 60c5,12 9,32 18,58l-42 7 50 48c3,2 7,5 10,8 90,64 55,53 164,145l202 132c33,5 -12,-29 47,21 0,-45 -8,-8 36,-34 -13,-34 7,-16 -26,-39 27,-37 -43,-37 162,-37 -21,-54 -29,-55 -77,-76 -76,-32 -101,-62 -191,-138l-192 -189c-2,-3 -6,-6 -8,-8l-14 -13c-24,-32 -5,-26 -2,-108 -3,6 -3,14 -6,19 -56,93 7,36 -64,53z"/>
    <path class="fil77" d="M13104 17118l19 8c3,1 9,3 12,4 4,1 9,2 14,2 22,3 64,2 89,3 -41,67 -44,22 -88,96 72,21 18,-1 49,47 45,68 -20,67 86,-4l47 -41c91,-97 22,-19 128,-92 118,-81 64,-61 176,-130 3,-2 8,-4 11,-7l31 -27c43,-44 95,-97 106,-152 20,28 32,24 69,45l6 -40c-18,-43 -28,-45 -66,-82 -38,-39 -41,-47 -88,-73 -8,61 -18,42 -89,103l-306 280c-90,64 -184,-20 -206,60z"/>
   </g>
   <g>
    <path class="fil78" d="M9473 13537c28,97 321,285 202,830 -67,301 -189,534 -293,807 -232,605 -419,1188 48,1704 632,700 1877,1018 2496,1636 75,75 79,129 138,158 135,-146 98,-188 413,-399 745,-502 2075,-981 2409,-1688 196,-414 20,-972 -124,-1333l-30 -75 -72 -185c-3,-4 -8,-13 -9,-11 -1,2 -6,-9 -8,-13 -13,-35 -5,-3 -14,-50 -87,-182 -184,-459 -209,-680 -15,-140 -3,-282 44,-403 44,-114 138,-216 159,-276 -37,-53 18,-42 -47,-42 -19,87 -85,69 -103,175 -23,-30 -43,-32 -52,-72 51,-27 33,-38 69,-69 -15,-56 27,-23 -31,-57 -81,41 -131,191 -178,281 -5,92 4,13 -6,41 -11,28 -12,28 -22,41 -23,295 -52,379 29,678 54,201 127,366 204,554 164,403 304,728 281,1232 -8,66 -5,67 -40,110 -39,179 -289,427 -397,510 -179,138 -331,246 -542,364 -3,3 -7,4 -9,10 -2,6 -8,8 -11,10 -28,16 -4,6 -42,18 -330,170 -965,505 -1281,708 -179,115 -312,253 -381,298 -56,-25 -162,-128 -216,-171 -652,-518 -2325,-1053 -2492,-1833 -76,-352 185,-1150 282,-1260 51,-188 150,-372 204,-588 65,-256 67,-439 0,-693l-31 -73c-44,-117 -175,-302 -277,-387 -45,-38 -16,-19 -47,-28 -94,9 6,-52 -56,28 79,54 70,56 134,121 -56,76 -61,54 -62,54l-20 11c-1,-4 -8,3 -10,7z"/>
    <path class="fil78" d="M11239 13999c30,27 25,24 102,27 118,6 87,-7 107,-27 -4,-1 -9,-4 -12,-5l-197 5z"/>
   </g>
   <path class="fil79" d="M12724 16366c54,21 119,41 109,127 -56,-22 -107,-49 -109,-127zm1 -103c62,15 104,43 113,117 -64,-20 -104,-39 -113,-117zm-5 -106c78,14 115,49 119,117 -64,-22 -102,-41 -119,-117zm677 -40c-7,74 -68,175 -129,223 7,44 6,8 -17,21 -43,-15 -226,-89 -250,-115l-127 -16 -21 -29c-31,-77 -3,-74 -22,-119l-33 -39 -57 -44 -7 34c107,0 8,-7 52,35 16,71 22,-18 43,89l-96 -55 -17 0c-16,105 -1,23 -33,63 -97,-13 -37,-11 -60,-32 -110,-39 -287,-90 -345,-181 -113,-27 -270,-249 -319,-384 -34,-94 -47,-211 -30,-325 13,-84 52,-210 101,-244 24,-57 42,-41 119,-40 45,0 92,2 138,2 92,1 185,3 276,1l369 0 388 4 337 39 5 131c-12,185 -21,279 -66,469l-126 388c-25,61 -31,86 -73,124zm-1221 -156c48,20 201,107 232,141l58 18c55,14 41,6 79,39 45,8 94,35 138,29 65,54 41,254 20,327 3,5 5,13 7,17l16 -28 -7 -37 48 24c3,4 5,6 7,14 9,33 50,41 64,45 11,-27 12,-13 12,-68l-10 -140c13,-153 -7,-37 34,-78 113,36 280,74 347,148 -59,103 -251,304 -376,345 -5,7 -3,7 -20,22 -73,60 -241,127 -331,149 -94,49 -310,63 -427,51 83,-279 57,-341 -6,-619l-339 -692c-54,-118 -125,-285 -70,-426 37,-94 166,-204 304,-225 -74,256 -163,446 69,761l151 183zm-370 -941c-22,41 -221,100 -217,341 3,188 109,311 148,458 60,53 222,409 263,519 80,210 106,437 16,644 -135,7 -217,-7 -329,-27l-420 -190c-31,-26 -16,-14 -21,-21 -76,-32 -115,-75 -167,-122 -31,-27 -41,-37 -70,-67 -41,-42 -39,-28 -54,-78 -59,-34 -74,-69 -118,-130 -261,-361 -405,-947 -392,-1383l517 -3 966 -1 -122 60zm1179 -222l83 -87 100 -107c120,-157 268,-92 478,-43l9 47 11 187 0 100c-77,45 -692,24 -828,15l147 -112zm-1679 -74l-23 180 -158 8c-23,-82 -26,-193 2,-267l387 -9c69,12 28,1 53,27l0 232 -158 5c-10,-108 16,-137 -38,-202l-55 -1 -10 27zm1838 -181c-52,85 -261,291 -376,350 -93,48 -561,19 -704,17 25,-110 209,-337 281,-375 81,-107 245,-142 398,-50 50,45 37,176 53,242 18,74 -4,34 42,74 110,-35 34,-120 112,-249l181 -311c28,-36 11,-17 39,-38 47,-137 163,-177 344,-190l35 148c47,49 95,295 88,365 -50,-39 -176,-49 -251,-59 -145,-20 -161,38 -242,76zm-1042 -935c123,-25 508,1 587,136 -230,32 -128,19 -305,-46 -77,-29 -213,-51 -282,-90zm-67 -20l12 48 110 39 43 19c84,7 176,35 241,81 -37,56 -52,44 -101,153l-3 55 4 38 67 -12c83,-18 163,-17 226,44 62,-4 20,-6 36,21 55,47 69,170 78,261l7 46c28,51 20,9 3,57l-70 -26 -71 -19c-130,-9 -147,8 -244,40 -14,34 -64,66 -111,100l-94 102 -104 148 -29 55c-20,61 -14,71 -87,70l-331 8 4 -494 2 -61 -7 17 -46 28 0 11 -1 185 -427 3c-31,-21 -13,4 -24,-38 -2,-8 -4,-39 -4,-49 -2,-41 3,-81 7,-122 -56,41 -10,-9 -30,51 -10,29 -7,23 -10,54 -4,35 13,54 -6,84l-1 320c-92,27 -225,11 -321,4l-305 1 0 -121 -3 -35c-3,-29 -8,-33 -2,-66 15,-78 12,-36 26,-55l-3 -21 5 -53 28 -144 12 -51 39 -179c10,-37 21,-45 25,-74 11,-34 17,-58 30,-91 6,-18 5,-20 15,-37 26,-45 7,-18 32,-39 -11,-82 1,-37 16,-53 12,-78 75,-185 120,-238 15,-53 -12,-20 32,-41 19,-74 127,-210 188,-238l39 -47c12,-20 3,-16 30,-40 37,-31 19,-12 42,-19 17,-27 9,-23 42,-53 19,-18 28,-21 49,-36 56,-40 47,-39 114,-60l-1 -1 39 -25 7 -4c77,-58 190,-107 299,-121l53 -23 39 1c82,-25 281,-42 387,-22 74,-7 25,-10 46,21 44,-61 328,41 390,56l0 47 12 -33 39 24c101,8 314,159 357,222l29 29c51,21 18,0 61,36l211 275c44,24 8,-24 42,50 45,85 126,214 142,314 -61,5 -108,8 -159,29 -75,32 -55,48 -117,66 -16,38 -6,27 -34,62 0,0 -24,24 -25,25 -26,19 -6,6 -30,16l0 21c-15,42 -20,46 -43,69 -13,59 0,34 -41,86 -12,-16 -10,10 -14,-31 -2,-16 3,-30 5,-44l9 -57c-21,-50 -32,-108 -50,-160 -26,-71 -45,-76 -1,-115l-39 -15 -44 6 62 212c11,17 7,-19 21,37 11,47 5,30 5,75 -60,-25 -14,11 -45,-39l-24 -78c-82,6 -7,-4 -49,25l35 17c19,78 74,129 57,207l-12 52c-35,-19 -11,0 -29,-34l-35 -192 -39 -12 4 52c18,76 33,112 53,179 35,120 -2,111 -19,214l-6 80 -11 39 -28 -35 -5 -48c-3,-129 -31,-371 -61,-498 -25,-106 -40,-139 -117,-177 -71,-34 -138,-55 -219,-39 -26,23 43,31 -55,20 -3,-66 -14,-23 21,-69 47,-107 157,-103 285,-124 141,-23 190,-38 298,-97 28,-16 -45,-33 59,-12 27,95 8,21 -19,46l-88 52 57 -12 95 -19c5,-38 -22,-45 12,-36 -21,-60 -44,-61 -117,-74l-104 59c-24,10 -63,25 -89,29l-117 -72 -46 -8 8 -16 -323 -74 -55 -1 -185 7 -33 29zm-2548 -272c31,9 2,-10 47,28 102,85 233,270 277,387 2,4 7,4 9,11 1,7 6,9 8,13 13,34 5,2 14,49 67,254 65,437 0,693 -54,216 -153,400 -204,588l48 6c6,-74 -9,-3 24,-31 0,-60 147,-423 173,-518 25,-96 49,-191 56,-284 7,-114 -15,-239 -3,-343l-92 -275c-42,-37 -40,-41 -72,-88 -9,-14 -18,-25 -26,-41 -17,-33 -11,-16 -16,-43l-118 -115c-40,-37 -68,-68 -109,-112 24,-56 296,-401 341,-434 68,34 227,194 264,264 55,22 22,-6 51,55 48,11 107,82 143,121 39,44 21,15 47,69 35,7 9,-6 48,26 14,11 29,29 43,43 36,37 55,52 80,94l152 137c-5,87 -82,203 -121,298 -41,100 -89,227 -108,344 -141,377 -94,1081 13,1472 124,450 371,817 632,1021 328,256 771,406 1305,298 358,-71 688,-291 895,-565 40,-54 60,-90 100,-131l237 231 80 91c47,26 50,34 88,73 38,37 48,39 66,82 77,40 139,136 192,175 44,33 8,12 38,20 61,-5 37,31 22,-45 -12,-63 -109,-87 -120,-155 -60,-37 -103,-73 -133,-132 -59,-26 -227,-204 -258,-256 -48,-21 -142,-121 -165,-163 56,-147 126,-251 181,-409 181,-520 178,-1097 60,-1615 -49,-186 -107,-341 -189,-505 -42,-82 -91,-160 -135,-226 -51,-77 -106,-131 -157,-205 -80,-61 -146,-142 -250,-216 -323,-229 -688,-305 -1106,-259 -741,83 -1023,650 -1118,724 -50,-30 -101,-95 -147,-140 -44,-44 -114,-94 -135,-150 -49,-25 -41,-24 -82,-64 -12,-13 -23,-24 -33,-35 -25,-33 -13,-12 -23,-39 -67,-33 -104,-90 -157,-143 -48,-47 -115,-93 -135,-149 -52,-27 -76,-57 -114,-102 26,-55 99,-138 138,-189 73,-97 55,-94 206,-115 190,-27 385,-65 586,-74l-17 -1c46,-38 -34,-7 68,-32 13,-4 53,-2 69,-2 -32,40 -63,-4 -120,-16 -170,9 -375,40 -537,67 -273,46 -217,40 -350,215l-504 647c17,31 11,17 28,40l25 35z"/>
   <path class="fil80" d="M9473 13537c2,-4 9,-11 10,-7l20 -11c1,0 6,22 62,-54 -64,-65 -55,-67 -134,-121 62,-80 -38,-19 56,-28l-25 -35c-17,-23 -11,-9 -28,-40l504 -647c133,-175 77,-169 350,-215 162,-27 367,-58 537,-67 837,-121 2016,-88 2877,44 462,70 261,-5 708,534 49,59 87,109 136,174 47,60 98,109 135,177 -52,97 -168,115 -222,253 58,34 16,1 31,57 -36,31 -18,42 -69,69 9,40 29,42 52,72 18,-106 84,-88 103,-175 65,0 10,-11 47,42 99,-56 139,-157 336,-260 -29,-77 -154,-220 -221,-305l-452 -582c-116,-151 -78,-173 -301,-214 -1157,-216 -2676,-197 -3839,1 -241,42 -192,51 -312,205 -100,130 -644,808 -677,891 158,92 243,206 316,242z"/>
   <path class="fil81" d="M14623 13559c-21,60 -115,162 -159,276 -47,121 -59,263 -44,403 25,221 122,498 209,680 9,11 12,14 24,39 1,4 3,20 4,17 1,-2 2,12 3,18l72 185c9,12 11,12 23,39 14,34 -9,-58 7,36 144,361 320,919 124,1333 -334,707 -1664,1186 -2409,1688 -315,211 -278,253 -413,399 -59,-29 -63,-83 -138,-158 -619,-618 -1864,-936 -2496,-1636 -467,-516 -280,-1099 -48,-1704 104,-273 226,-506 293,-807 119,-545 -174,-733 -202,-830 -73,-36 -158,-150 -316,-242 33,-83 577,-761 677,-891 120,-154 71,-163 312,-205 1163,-198 2682,-217 3839,-1 223,41 185,63 301,214l452 582c67,85 192,228 221,305 -197,103 -237,204 -336,260zm-3514 -1539c-4,2 -10,4 -14,5 -106,28 -96,1 -200,23 -55,27 -93,16 -161,18l-209 22c-47,26 -40,24 -100,25 -31,0 -52,-1 -72,-9 -85,6 -165,31 -258,44 -195,28 -137,-7 -347,274l-543 696c-46,58 -96,116 -135,175 71,98 416,207 543,644 95,326 -98,738 -190,968 -199,502 -258,597 -339,1142 -23,152 -4,365 65,509 418,869 1712,1229 2536,1820 39,28 46,41 82,73 100,89 228,194 262,341 124,-11 51,-89 206,-242 103,-103 300,-256 431,-327l908 -503c28,-14 29,-15 56,-30 69,-38 129,-70 201,-110 129,-72 257,-143 374,-228 227,-167 463,-321 636,-569 300,-430 211,-937 25,-1435 -25,-65 -55,-145 -83,-210 -154,-347 -351,-815 -287,-1182 69,-390 491,-588 544,-661l-803 -1040c-78,-99 -53,-81 -205,-105 -87,-13 -182,-51 -265,-36 -74,-9 -70,7 -127,-25 -85,-5 -189,-41 -266,-22 -6,-1 -33,-7 -38,-8 -4,-2 -11,-1 -14,-7 -3,-6 -7,-5 -11,-8l-340 -17c-61,14 -537,-22 -623,-33l-577 8 -176 4 -486 16z"/>
   <path class="fil82" d="M10808 12362l17 1 -52 51 103 11c-3,1 -8,4 -12,6l-104 52c-3,2 -8,4 -11,6l-74 45c-4,2 -9,3 -13,4 -55,20 -40,2 -99,44l-60 38c-168,71 -38,13 -179,118l-128 79c-72,45 -81,17 -78,69l-102 -86c-16,28 -36,-48 -7,43 20,56 87,102 135,149 53,53 90,110 157,143 -7,-41 -27,-39 46,-97 3,-2 8,-5 11,-7l505 -292c68,-30 56,-9 148,-57l57 -30c4,-2 8,-4 12,-6 52,-22 94,-25 136,-38 258,-79 343,-65 410,-88 123,-42 98,-2 189,-34 72,-25 384,-41 497,0 100,35 96,-3 194,29l24 10c89,29 111,-7 327,69 4,1 8,3 12,4 230,70 -9,-46 331,119 7,4 54,25 59,27 34,15 22,8 62,22 97,32 47,37 124,66 70,27 48,1 114,68 52,52 33,23 104,62l64 41c4,2 8,5 10,7l121 106c2,2 6,5 8,8 80,72 134,91 238,213 2,2 6,6 8,8l161 189c11,8 -8,26 10,-17 44,37 60,-53 29,54 25,-20 21,-15 48,-48 11,-13 22,-31 36,-49 36,-49 48,-56 65,-102l29 -53c-69,-21 -53,-21 -120,-112 -88,-118 -73,-104 -200,-200 -3,-2 -7,-4 -10,-7 -91,-70 -84,-98 -140,-135l-462 -296c-45,-21 -49,-19 -92,-46l-51 -35c-4,-2 -8,-4 -12,-6l-217 -81c88,4 153,26 228,-4 -68,-1 -82,0 -129,-41 -291,-63 -895,-68 -1221,-67 -437,2 -836,48 -1256,73z"/>
   <path class="fil83" d="M13017 11680l518 57c40,52 54,82 67,149 -118,-6 -240,-23 -362,-34 -209,-20 -198,24 -223,-172zm216 -170l226 26 63 149 -243 -21 -46 -154zm-2131 369c1,-78 18,-265 34,-341 20,-93 141,-174 227,-93 65,62 13,227 1,316 -11,80 4,101 -75,111 -50,7 -136,9 -187,7zm1894 -390c204,-16 215,23 222,166l-183 -25c-3,-1 -9,-3 -13,-5l-26 -136zm220 -160c146,13 186,10 210,156 -59,-4 -403,-28 -444,-62l-105 -48c-65,-33 -53,-12 -62,-93l401 47zm-2114 112l6 61c-10,103 8,8 -26,50l-10 75c-4,92 25,126 -24,213 -66,0 -133,19 -202,2 -4,2 -11,0 -13,6 -9,20 -303,39 -324,39l32 -127c19,-56 -14,-20 42,-42 34,-13 65,-9 100,-10 -37,5 -73,16 -116,-18l38 -59 46 -96 93 -4 -58 -30c-5,-3 -11,-6 -16,-8 -5,-3 -12,-6 -17,-9 0,-107 -6,-8 32,-52 51,-62 -4,-62 100,-88 80,-20 453,-77 516,-33 -31,73 -33,34 -111,74 -32,17 -54,37 -88,56zm590 -340l929 14c175,9 352,24 524,46l472 81c-95,108 -176,60 -333,40 -134,-16 -268,-29 -396,-44 -472,-54 -1184,-48 -1657,-1 -135,14 -256,29 -389,43 -112,12 -303,71 -340,-55 232,-66 927,-121 1190,-124zm-453 -35c-46,26 -92,29 -153,16l-27 11c-4,1 -9,3 -14,4l-584 75c-44,-100 -56,-120 -41,-268l351 -58 6 102c1,4 3,11 4,14 1,4 4,17 4,15 1,-3 3,9 5,14l103 -10 242 -34c13,-173 -33,-157 154,-169l215 -9 3 152c481,2 342,-15 372,-174l363 8 9 160 341 6 22 -167c42,-6 14,-12 71,-2 65,12 36,16 50,22l51 0c213,11 184,-22 192,168l365 49 4 -148 199 30 152 42c10,154 4,153 -45,261 -43,-2 -76,-6 -115,-12 -58,-9 -62,-6 -102,-29 -57,12 -611,-46 -663,-70 -111,20 -611,-17 -778,-17 -137,1 -681,38 -756,18zm1923 -177l114 -45c23,28 17,-36 23,52 3,50 -9,33 -15,52l-145 -26c1,-32 -7,-13 23,-33zm-2285 -18l73 27c33,22 42,-24 25,25l-159 19 3 -104c79,15 39,10 58,33zm718 -76c13,29 12,24 35,41 30,35 37,-43 23,45l-101 -9 -3 -99c88,-20 16,-11 46,22zm927 28c10,-24 -12,-9 23,-42 12,16 19,-35 18,46 -2,75 0,10 -18,42 -98,1 -49,-4 -66,-23 34,-39 11,-14 43,-23zm-2169 1281c20,8 41,9 72,9 60,-1 53,1 100,-25l-104 11 61 -161 294 -32 -42 160c68,-2 106,9 161,-18l-105 11 38 -157c42,-5 161,-27 195,-13l35 36c2,2 5,8 8,12l68 -2c60,-5 133,-4 190,-11 140,-17 17,-48 136,-67 2,-84 -3,-29 36,-48l-82 1c4,-59 -5,-44 21,-78l-2 -64 166 -13c34,-39 -6,-14 50,-30l156 -4 40 63c35,-58 54,-117 116,-150 87,-45 167,-17 233,24 37,-1 29,9 27,-28 -60,-51 -166,-89 -270,-38 -156,77 7,93 -260,116 -53,-10 -26,17 -46,-17l-12 5c-23,33 -27,22 -85,27 -52,5 -65,6 -115,-6l24 -168 89 6c-29,-22 -122,-5 -136,-34 -4,-9 -13,-6 -17,-11 -17,-62 -90,-2 -39,-118 44,-21 116,-20 176,-26 65,-47 135,-41 224,-41 64,0 143,-4 206,1l104 10c63,0 190,-29 276,-5 43,12 25,6 50,24l374 28c15,83 15,58 -29,97 -23,71 -39,42 30,25 142,16 169,35 189,174 12,85 30,209 32,296l-245 -12c-58,-7 -27,-52 -35,38 22,15 245,58 313,26 81,-38 -39,-67 268,-29 15,60 26,80 24,144 4,3 8,2 11,8 3,6 10,5 14,7 5,1 32,7 38,8l-37 -157c363,-10 315,91 355,161 -21,22 28,11 -52,18 57,32 53,16 127,25 -52,-125 -101,-246 -155,-370 -32,-71 -149,-310 -155,-379 133,63 209,-71 253,-161 24,-48 62,-111 70,-153 46,-220 -55,-202 -221,-236 -280,-59 -269,-63 -515,67 0,-164 48,-141 -346,-187 -297,-35 -134,153 -394,153l0 -155 -499 0 0 155c-294,0 -16,-268 -722,-103 0,245 -36,90 -232,41 -77,-20 -331,37 -414,53 -106,21 -97,4 -96,129 0,118 5,116 44,199 55,116 116,215 268,215l-300 724z"/>
   <path class="fil84" d="M10825 12312c57,12 88,56 120,16 -16,0 -56,-2 -69,2 -102,25 -22,-6 -68,32 420,-25 819,-71 1256,-73 326,-1 930,4 1221,67 170,12 346,36 511,65 272,47 202,30 343,207 65,82 448,557 470,613 -44,50 -93,97 -148,131 -17,46 -29,53 -65,102 -14,18 -25,36 -36,49 -27,33 -23,28 -48,48l-119 274c8,66 -22,308 -17,430 19,121 44,241 79,353 27,86 102,253 106,323 70,76 191,424 222,542 42,64 116,358 108,436 44,82 31,273 19,379 -12,108 -64,197 -117,277 -76,115 -290,341 -413,395 -10,31 18,-1 -18,24l-51 -24c15,76 39,40 -22,45 -21,81 -144,126 -211,169 -91,58 -163,96 -241,138 -169,89 -345,178 -511,277 -85,28 -326,171 -407,216 -89,51 -345,221 -397,234l-258 215 -244 -197 -818 -466c-479,-241 -1267,-642 -1524,-1092 -201,-353 5,-812 63,-1072l145 -356 -48 -6c-97,110 -358,908 -282,1260 167,780 1840,1315 2492,1833 54,43 160,146 216,171 69,-45 202,-183 381,-298 316,-203 951,-538 1281,-708l62 -38c211,-118 363,-226 542,-364 108,-83 358,-331 397,-510l40 -110c23,-504 -117,-829 -281,-1232 -77,-188 -150,-353 -204,-554 -81,-299 -52,-383 -29,-678 5,-51 -1,-14 11,-53 1,-4 6,-6 7,-15 2,-8 7,-9 10,-14 47,-90 97,-240 178,-281 54,-138 170,-156 222,-253 -37,-68 -88,-117 -135,-177 -49,-65 -87,-115 -136,-174 -447,-539 -246,-464 -708,-534 -861,-132 -2040,-165 -2877,-44z"/>
   <path class="fil85" d="M10955 16477c-21,-314 -5,-193 -96,-255l48 -11c-57,-39 -39,3 -75,-58 25,-30 120,-57 176,-59 -48,-42 -6,-24 -82,-31 28,-111 -53,-317 -12,-507 25,-115 30,-123 29,-264 0,-94 6,-190 -4,-284l-168 -12c24,1 67,1 89,-2l102 -33 -517 3c-13,436 131,1022 392,1383 44,61 59,96 118,130z"/>
   <path class="fil86" d="M12278 15952c86,7 23,-1 50,-12 -39,-41 -24,-80 -25,-149l39 -21c-2,-10 -7,-41 -11,-51 -16,-45 -1,-20 -31,-50l3 -25 -16 -22c-46,-83 21,70 -13,-25 -19,-52 -4,-90 9,-138 2,-4 14,-40 17,-50l22 -47c4,-31 -2,-8 9,-47 1,-3 6,-5 6,-10 1,-6 5,-6 7,-9 25,-24 4,2 16,-50 -46,-9 -51,53 -56,-6 -10,-115 -11,-185 30,-252 -221,-20 -233,-46 -304,11 -49,34 -88,160 -101,244 -17,114 -4,231 30,325 49,135 206,357 319,384z"/>
   <path class="fil87" d="M12061 16360c63,278 89,340 6,619 117,12 333,-2 427,-51 11,-62 7,-33 0,-51 -76,3 -61,4 -116,27 10,-134 3,-288 3,-423 0,-76 0,-151 -1,-226 0,-86 10,-77 22,-116 9,-26 25,44 6,-37 -31,-34 -184,-121 -232,-141 -29,42 2,79 -78,-15 -29,121 -15,311 17,414 -32,21 47,62 -54,0z"/>
   <path class="fil88" d="M12061 16360c101,62 22,21 54,0 -32,-103 -46,-293 -17,-414 80,94 49,57 78,15l-151 -183c-232,-315 -143,-505 -69,-761 -138,21 -267,131 -304,225 -55,141 16,308 70,426l339 692z"/>
   <path class="fil89" d="M11048 16009c7,9 17,13 24,34 8,23 5,21 6,44l53 4c371,-170 271,-96 480,-179 -39,-65 -187,-159 -253,-241 -160,-197 -97,-255 -116,-360 18,-51 13,-21 -8,-32 -87,47 -189,158 -225,283 -52,179 4,301 39,447z"/>
   <path class="fil90" d="M12494 16928c90,-22 258,-89 331,-149 17,-15 15,-15 20,-22 -43,-70 -13,-25 -101,4 14,-197 9,-158 -36,-160l181 0c-69,-62 -141,-41 -215,-51l9 -362c-44,6 -93,-21 -138,-29l-79 -39 -58 -18c19,81 3,11 -6,37 -12,39 -22,30 -22,116 1,75 1,150 1,226 0,135 7,289 -3,423 55,-23 40,-24 116,-27 7,18 11,-11 0,51z"/>
   <path class="fil91" d="M12621 11115c35,45 -104,41 195,41 -104,55 -954,11 -1177,20 87,-28 199,-25 311,-31l-265 -2c-14,-30 -20,2 7,-42 -263,3 -958,58 -1190,124 37,126 228,67 340,55 133,-14 254,-29 389,-43 473,-47 1185,-53 1657,1 128,15 262,28 396,44 157,20 238,68 333,-40l-472 -81c-172,-22 -349,-37 -524,-46z"/>
   <path class="fil92" d="M11668 15875c30,67 0,16 37,27l61 79c27,63 14,853 11,931 -163,3 -40,-12 -90,43 112,20 194,34 329,27 90,-207 64,-434 -16,-644 -41,-110 -203,-466 -263,-519 -72,46 0,42 -69,20 -13,18 -41,-40 0,36z"/>
   <path class="fil93" d="M10009 12843c-29,-91 -9,-15 7,-43l102 86c-3,-52 6,-24 78,-69l128 -79c141,-105 11,-47 179,-118l60 -38c59,-42 44,-24 99,-44 4,-1 9,-2 13,-4l74 -45c3,-2 8,-4 11,-6l104 -52c4,-2 9,-5 12,-6l-103 -11 52 -51c-201,9 -396,47 -586,74 -151,21 -133,18 -206,115 -39,51 -112,134 -138,189 38,45 62,75 114,102z"/>
   <path class="fil94" d="M13397 16117c42,-38 48,-63 73,-124l126 -388c45,-190 54,-284 66,-469l-5 -131 -337 -39c3,4 8,4 11,10 8,21 129,41 161,57l-103 19 -1 1032c-62,-61 7,-17 35,-34l-26 67z"/>
   <path class="fil95" d="M11638 14489c130,50 231,231 261,408l-266 5 5 -413zm444 -706c-20,56 -9,40 -47,79l-85 137 -68 100 -109 173 -101 161 -51 -11 -4 494 331 -8 -4 -59 91 -11 29 -55 -131 21 -22 -62 257 -107 94 -102c-39,32 9,11 -56,25l-160 74c-86,31 -142,89 -183,20 17,-56 127,-117 181,-142 38,-37 41,-44 94,-52 30,-48 24,-33 74,-66 41,-27 35,-28 83,-46 34,-47 121,-103 186,-129l99 -64c13,-28 9,-14 42,-40 25,-20 32,-24 48,-39 -16,-27 26,-25 -36,-21 -18,12 -32,23 -52,34 -47,29 -19,16 -57,24 -32,47 -49,52 -104,74l-152 103c-35,45 -30,37 -88,64l-44 38c-36,25 -74,48 -110,72 -16,10 -34,21 -53,35 -39,30 -19,6 -31,35 -30,13 -68,39 -82,44 -90,32 -100,-67 59,-168 28,-43 61,-85 115,-104l73 -77c21,-38 1,-9 24,-37 63,-79 -46,46 18,-19 16,-16 22,-19 39,-35l91 -80c7,-22 -8,-7 21,-39 22,-37 -29,-7 36,-34l3 -55c-25,13 -38,18 -57,26 -20,37 -13,31 -46,65 -35,34 -23,24 -57,39 -29,56 1,27 -51,54 -32,61 -83,111 -145,143 -8,22 2,6 -14,30 0,1 -21,25 -23,28 -20,21 -33,32 -51,47 -31,38 -52,58 -86,93 -46,46 -38,60 -91,30 -23,-53 57,-132 89,-208 54,-21 -3,-13 47,-34l63 -109 95 -134 73 -103c9,-51 7,-32 36,-52 10,-59 52,-97 78,-149l-43 -19c-18,50 -41,87 -75,108z"/>
   <path class="fil96" d="M13180 15237c-11,50 2,28 -31,57 42,15 18,0 37,3 35,7 11,-10 29,16 3,6 6,13 8,17l60 151 -48 28 47 4c12,17 8,3 14,38 0,2 -2,48 0,53l-35 32c-2,84 1,6 -30,45 -35,43 6,-13 -14,24l-7 18 8 0 -4 20 -2 23c45,34 16,-8 43,46 13,25 10,28 12,63l-3 416c-22,-22 6,-71 4,49 61,-48 122,-149 129,-223l26 -67c-28,17 -97,-27 -35,34l1 -1032 103 -19c-32,-16 -153,-36 -161,-57 -3,-6 -8,-6 -11,-10l-388 -4 10 2c161,0 140,60 292,19l17 309c-7,-4 -15,-7 -21,-10l-42 -33c-2,-7 -5,-8 -8,-12z"/>
   <path class="fil97" d="M11131 16091l-35 31 -18 -35 -30 -78c-35,-146 -91,-268 -39,-447 36,-125 138,-236 225,-283 35,-32 -46,-12 46,-30 -17,70 4,29 -38,62 19,105 -44,163 116,360 66,82 214,176 253,241 -209,83 -109,9 -480,179zm-123 3c-56,2 -151,29 -176,59 36,61 18,19 75,58 85,-14 369,6 498,0 30,-4 58,-6 89,-12 64,-10 63,1 75,-51l-109 -29 -16 -65 -69 32c-36,49 -39,41 -177,36l20 -19c13,-11 10,-10 33,-24l183 -70c44,-14 91,-27 138,-37 180,-39 120,-13 133,-70 -37,-11 -7,40 -37,-27 -56,-33 -79,-47 -128,-93 -18,-17 -37,-33 -54,-50l-32 -45c-46,-25 -67,-48 -100,-98 -15,-23 -49,-80 -60,-117 -28,-98 16,-203 68,-271 -15,-42 33,-44 -40,-25l-12 -12 -115 86c-345,225 -269,557 -149,870 -77,-4 -25,2 -38,-26z"/>
   <path class="fil98" d="M9844 13640l92 275 25 -18c31,-18 33,-23 72,-36l9 38c2,5 4,11 5,16l40 -34 29 -3 19 -102c-50,-47 -80,-45 -106,-103l141 -1c20,-61 31,-81 30,-133 -6,-80 69,-106 92,-127 3,-2 7,-6 9,-8 3,-3 19,-29 25,-42 14,20 22,18 -5,0 -2,-1 -23,-17 -27,-20 35,-44 -52,-64 55,-26 -26,-54 -8,-25 -47,-69 -36,-39 -95,-110 -143,-121 -50,77 -23,-46 8,50 16,50 3,26 21,57 -37,24 -63,53 -93,87l-31 38c-2,3 -6,7 -8,9l-20 16c-189,152 -116,203 -209,186l17 71z"/>
   <path class="fil99" d="M11272 14227c55,7 19,-11 52,50l61 0 7 -50c104,11 0,-1 87,56 69,-56 -7,-54 68,-53 22,13 46,-28 26,122 -74,27 -366,21 -448,3 -10,-61 -16,-82 9,-134 114,17 -12,14 86,51 3,-3 7,-7 9,-9l43 -36zm133 -121c23,26 20,20 19,71l-157 -4 8 -86c180,-28 125,3 130,19zm-64 -58c-96,-3 -113,19 -114,-66 48,-20 184,-23 230,0 0,90 -19,69 -116,66zm37 -175l32 -2c17,27 34,-47 13,58l-59 -5c-18,-93 -5,-25 14,-51zm-50 -2l-5 58 -47 0c-20,-22 -22,16 -20,-55l72 -3zm-85 -51c8,-50 12,-41 37,-68 101,-13 158,-24 171,77l-208 -9zm72 -131c13,-15 -29,-14 28,-21 72,-9 12,0 33,21 -31,15 -6,33 -61,0zm-43 -30c-22,98 -39,40 -71,114 -29,67 6,82 21,145l-44 12c0,44 -5,93 10,133 27,66 33,-29 35,91 -24,19 32,21 -56,19l-96 15 1 130 -1 114 4 153c19,-30 2,-49 6,-84 3,-31 0,-25 10,-54 20,-60 -26,-10 30,-51 136,20 306,-23 449,10l46 -28 7 -17 -2 -27 -7 -118c-20,-29 -12,-24 -21,-46l-62 2 -51 -1c-30,-38 -21,2 -26,-76l44 -13 8 -150 -39 -19c11,-49 50,-87 10,-152 -35,-57 -47,-24 -70,-118l-39 -27 -45 2c-55,28 -18,-2 -51,41z"/>
   <path class="fil100" d="M11048 14497l0 402 -245 -2c41,-190 119,-330 245,-400zm-396 -553c28,39 48,76 76,118 13,20 25,41 42,61 25,32 11,23 35,32 25,62 39,80 81,136 31,49 98,130 108,187 -62,31 -71,24 -168,-84 -14,-16 -13,-16 -20,-28 -1,-1 -4,-5 -5,-9 0,-5 -2,-7 -3,-10 -65,-31 -29,5 -62,-59 -35,-14 -15,-2 -48,-31 -16,-15 -25,-26 -42,-44 -41,-39 -64,-42 -71,-102 -4,29 -15,37 -25,74 57,33 108,83 141,141l105 100c34,23 100,71 106,134 -61,45 -126,-17 -159,-55 -59,-27 -53,-15 -87,-65l-145 -76 -12 51 109 68c41,20 39,19 82,48 16,11 24,14 40,29 21,19 11,11 26,32 48,7 65,7 78,62 -43,45 -53,42 -113,-1l-118 -51 -132 -43 -5 53 192 77 131 53 -22 62 -181 -32 -78 -15 -63 -3 3 35 305 60 0 60c96,7 229,23 321,-4l1 -320 -4 -153c-71,-14 -20,22 -68,-42 -18,-24 -24,-42 -39,-64 -35,-54 -49,-62 -75,-121l-141 -202 -80 -112c-15,16 -27,-29 -16,53z"/>
   <path class="fil101" d="M12674 16550c74,10 146,-11 215,51l-181 0c45,2 50,-37 36,160 88,-29 58,-74 101,-4 125,-41 317,-242 376,-345 -67,-74 -234,-112 -347,-148l2 291 -202 -5z"/>
   <path class="fil102" d="M12743 15851c53,14 65,24 81,85 -59,-22 -77,-20 -81,-85zm112 -7c-13,-20 -9,1 -15,-36l1 -101c23,13 50,39 54,70 9,72 1,43 -40,67zm-165 -129c25,32 14,-31 27,58 3,17 -5,48 -7,64 -55,-34 -34,-70 -20,-122zm54 33c57,-2 63,12 76,79 -56,-9 -70,-6 -76,-79zm-95 -16c-10,53 -36,70 -60,102 -2,2 -6,6 -8,7 -2,2 -7,6 -9,8 -2,2 -8,7 -10,9 -2,2 -10,13 -12,9 -1,-3 -8,7 -12,11 -18,69 -15,16 31,40 1,-1 26,-29 28,-31 48,59 29,0 57,78l32 -70c43,77 32,110 30,207l17 0c14,-54 -34,-48 53,-34 -44,-42 55,-35 -52,-35l7 -34c-13,-79 -7,-17 11,-44l75 57c-7,65 2,11 -29,31l33 39c19,45 -9,42 22,119l21 29 -7 -316 18 51c46,-38 11,37 39,-49l35 36 9 -56c39,10 19,4 71,30l-7 -54c-25,0 -71,8 -71,-35 -6,-30 -22,-27 -45,-76 -8,-19 -16,-52 -23,-73l-31 -14 -47 15 -14 31 -55 -49c23,-34 -50,-35 53,-23 -39,-34 59,-29 -47,-29 -39,49 -34,-72 -35,86l-6 -54c-1,-5 5,-43 6,-49 -125,0 -35,-8 -60,33 32,29 26,-10 21,44 -3,32 -28,51 -29,53z"/>
   <path class="fil103" d="M13666 14795c-115,57 -489,24 -639,24 -68,1 -24,6 -42,-21l-147 112c136,9 751,30 828,-15l0 -100z"/>
   <path class="fil104" d="M12621 11115l-929 -14c-27,44 -21,12 -7,42l265 2c-112,6 -224,3 -311,31 223,-9 1073,35 1177,-20 -299,0 -160,4 -195,-41z"/>
   <path class="fil105" d="M10744 11531l127 -13c-3,26 -7,57 -14,83 -18,68 0,43 -39,63 -24,12 -164,20 -200,23 -22,-32 -29,49 -13,-56l-38 59c43,34 79,23 116,18 -35,1 -66,-3 -100,10 -56,22 -23,-14 -42,42l318 -46c30,-5 68,-10 101,-13l96 7 -8 132c49,-87 20,-121 24,-213 -41,21 -115,27 -179,25l39 -146 147 -12 3 58c34,-42 16,53 26,-50l-6 -61c-77,5 -155,12 -232,22 -32,4 -76,13 -103,15 -94,6 -88,32 -82,-46 -38,44 -32,-55 -32,52 5,3 12,6 17,9 5,2 11,5 16,8l58 30z"/>
   <path class="fil106" d="M11998 17525c-43,36 -32,14 -72,26 -39,11 -61,-36 -55,29l4 11c34,8 8,-1 43,19 9,5 27,18 43,27l-20 67c-6,108 -22,51 27,67l81 -61 79 59c44,2 29,1 23,-61l-19 -71c35,-20 52,-42 90,-57 -33,-61 -7,-11 -88,-34l-27 -12c-2,-6 -7,-6 -11,-9l-10 -76c-3,-4 -6,-9 -9,-12 -2,-2 -6,-8 -9,-11l-44 -29 -26 128z"/>
   <path class="fil107" d="M12776 11798l138 16 -8 -150c-3,-233 -150,-265 -155,-114 0,24 29,163 25,248z"/>
   <path class="fil108" d="M12102 13608c69,39 205,61 282,90 177,65 75,78 305,46 -79,-135 -464,-161 -587,-136z"/>
   <path class="fil109" d="M11385 14277c-42,38 83,32 -78,32 7,3 11,8 45,10l24 -9c-99,6 -155,41 -242,7 16,34 -17,27 85,31l328 -1 0 -117c-75,-1 1,-3 -68,53 -87,-57 17,-45 -87,-56l-7 50z"/>
   <path class="fil110" d="M13084 13745l-5 39 -55 1c-20,17 29,11 -53,26 23,31 -39,27 56,24l31 -6c16,-12 -19,-17 57,-24 -12,64 15,27 -39,59 -19,5 -36,9 -63,17 -9,3 -33,10 -40,14 -39,18 -22,12 -36,22l39 15 94 -8c43,-47 87,-28 77,-114l-3 -58 -7 -48 -41 5c-34,-9 -7,-2 -12,36z"/>
   <path class="fil111" d="M11134 14317c87,34 143,-1 242,-7l-24 9c-34,-2 -38,-7 -45,-10 161,0 36,6 78,-32l-61 0c-33,-61 3,-43 -52,-50l-30 59c-63,-1 -30,10 -76,-28 -23,-19 4,-9 -36,-29l4 88z"/>
   <polygon class="fil112" points="11405,14564 11399,14456 11300,14465 11306,14553 "/>
   <path class="fil113" d="M12914 14397l41 -18c17,-78 -38,-129 -57,-207l-19 33 35 192z"/>
   <path class="fil114" d="M11405 14106l-13 54c-63,-4 -63,3 -105,-23 30,-47 45,-35 118,-31zm0 0c-5,-16 50,-47 -130,-19l-8 86 157 4c1,-51 4,-45 -19,-71z"/>
   <path class="fil115" d="M10445 14754l63 3 -44 -34 5 -90c-14,19 -11,-23 -26,55 -6,33 -1,37 2,66z"/>
   <path class="fil116" d="M13068 14253l-50 11c-2,14 -7,28 -5,44 4,41 2,15 14,31 41,-52 28,-27 41,-86z"/>
   <polygon class="fil117" points="12844,14245 12840,14193 12879,14205 12898,14172 12863,14155 12810,14201 "/>
   <path class="fil118" d="M12989 13764c15,33 -45,26 35,21l55 -1 5 -39 -95 19z"/>
   <path class="fil119" d="M11480 14171l18 -89 -44 13c5,78 -4,38 26,76z"/>
   <polygon class="fil120" points="12688,14412 12758,14438 12768,14377 12725,14394 "/>
   <path class="fil121" d="M12431 13960l-40 3 6 -52c-35,46 -24,3 -21,69 98,11 29,3 55,-20z"/>
   <path class="fil122" d="M11410 13871l-32 2c-11,78 -8,22 14,44 34,-27 11,9 18,-46z"/>
   <path class="fil123" d="M11276 13929l-2 -19 0 -28 37 -8 17 -3 -72 3c-2,71 0,33 20,55z"/>
   <polygon class="fil124" points="11131,16091 11078,16087 11096,16122 "/>
   <polygon class="fil125" points="12872,14718 12833,14722 12861,14757 "/>
  </g>
 </g>
 <g id="Camada_x0020_2">
  <metadata id="CorelCorpID_1Corel-Layer"/>
 </g>
 <g id="Camada_x0020_3">
  <metadata id="CorelCorpID_2Corel-Layer"/>
  <g id="_2605576178304">
   <g id="svg_6">
   </g>
  </g>
  <g id="_2605576176768">
  </g>
  <g id="svg_29">
  </g>
  <g id="svg_40">
  </g>
  <path id="svg_5" class="fil126 str0" d="M8109 17767l262 -26c16,88 47,152 95,193 48,41 113,61 194,61 86,0 151,-18 195,-54 44,-37 66,-79 66,-128 0,-32 -10,-58 -28,-81 -18,-22 -50,-41 -96,-57 -32,-11 -103,-30 -214,-58 -144,-36 -244,-80 -302,-132 -81,-74 -122,-163 -122,-268 0,-68 19,-132 57,-191 39,-59 94,-104 166,-135 72,-31 159,-46 261,-46 166,0 291,37 375,111 85,73 129,172 133,295l-269 10c-12,-69 -36,-118 -74,-148 -37,-30 -94,-45 -169,-45 -77,0 -138,16 -181,48 -28,20 -43,48 -43,83 0,31 14,58 40,80 34,29 116,59 246,90 131,30 227,63 289,95 63,33 112,78 147,136 35,57 53,127 53,211 0,76 -21,148 -64,214 -42,67 -102,116 -179,148 -78,33 -174,49 -290,49 -168,0 -297,-39 -387,-116 -90,-78 -144,-191 -161,-339l0 0 0 0zm1254 -226c0,-135 20,-249 61,-341 30,-68 71,-129 123,-183 53,-53 110,-93 172,-120 83,-35 179,-52 287,-52 196,0 353,61 471,182 118,122 177,291 177,508 0,215 -59,383 -176,505 -116,121 -273,182 -468,182 -198,0 -355,-60 -472,-181 -117,-121 -175,-287 -175,-500l0 0 0 0zm276 -9c0,151 35,265 105,343 70,78 158,117 265,117 108,0 196,-39 265,-116 68,-77 103,-193 103,-347 0,-153 -34,-267 -101,-341 -67,-76 -156,-113 -267,-113 -111,0 -200,38 -268,114 -68,76 -102,190 -102,343l0 0 0 0zm1224 666l0 -1329 431 0c163,0 269,6 319,20 76,20 139,63 191,130 51,67 77,153 77,259 0,82 -15,150 -44,206 -30,55 -67,99 -113,131 -45,31 -92,52 -139,63 -64,12 -157,19 -278,19l-175 0 0 501 -269 0 0 0zm269 -1104l0 378 147 0c105,0 176,-7 211,-21 36,-14 64,-35 84,-65 20,-30 30,-65 30,-104 0,-49 -14,-89 -42,-120 -29,-32 -64,-51 -108,-60 -32,-5 -96,-8 -192,-8l-130 0 0 0 0 0z"/>
  <ellipse id="svg_36" class="fil127" cx="10085" cy="14866" rx="1217" ry="666"/>
  <ellipse id="svg_32" class="fil128" cx="10104" cy="13135" rx="1046" ry="1293"/>
  <ellipse id="svg_38" class="fil127" cx="10123" cy="12184" rx="913" ry="685"/>
  <path id="svg_9" class="fil129" d="M9855 12162l-133 0c-5,-197 -73,-389 -89,-575 -450,105 -556,582 -636,824 -90,273 20,39 -125,189 -106,109 -184,315 53,315l2390 0c137,0 133,-62 133,-178 0,-121 -28,-74 -82,-139 -117,-140 -20,76 -112,-153 -59,-146 -139,-740 -647,-858 -15,186 -84,378 -88,575l-133 0c0,-703 388,-797 -443,-797 -319,0 -88,529 -88,797z"/>
  <path id="svg_10" class="fil129" d="M10064 14470c412,0 660,-170 850,-477 354,-570 417,-1175 184,-934 -105,108 -43,75 -75,246 -178,958 -1121,1369 -1651,484 -73,-122 -140,-286 -173,-446 0,-1 -86,-535 -207,-284 -78,162 278,1411 1072,1411l0 0z"/>
  <path id="svg_8" class="fil129" d="M8780 16639l2656 0c1701,0 917,-2316 -443,-2346 -21,246 -515,1041 -664,1151 -16,-195 -44,-108 -44,-443 0,-130 124,-126 177,-354 -724,106 -346,8 -708,0 75,322 177,96 177,487 0,153 -33,171 -45,310 -149,-110 -643,-905 -664,-1151 -289,6 -658,182 -829,322 -489,398 -754,1183 -456,1672 130,213 500,352 843,352l0 0z"/>
 </g>
</svg>
